<?xml version="1.0" encoding="UTF-8"?>
<svg id="Ebene_1" data-name="Ebene 1" xmlns="http://www.w3.org/2000/svg" viewBox="0 0 168.33 19.21">
  <defs>
    <style>
      .cls-1 {
        fill: #d1da4a;
      }

      .cls-1, .cls-2 {
        stroke-width: 0px;
      }

      .cls-2 {
        fill: #00273b;
      }
    </style>
  </defs>
  <path class="cls-2" d="m162.49,13.06c-1.94,0-3.52-1.6-3.52-3.57s1.58-3.56,3.52-3.56,3.52,1.6,3.52,3.56-1.58,3.57-3.52,3.57m-.04-9.29c-3.25,0-5.89,2.56-5.89,5.73s2.64,5.73,5.89,5.73c1.38,0,2.62-.58,3.5-1.5-.1,1.86-1.62,3.32-3.5,3.32-1.3,0-2.44-.72-3.02-1.8h-2.58c.76,2.3,2.98,3.97,5.61,3.97,3.24,0,5.89-2.56,5.89-5.73v-3.99c0-3.16-2.64-5.73-5.89-5.73m-9.85,11.14h2.4v-5.81c0-2.94-2.38-5.33-5.33-5.33s-5.33,2.38-5.33,5.33v5.81h2.4v-5.95c0-1.66,1.3-3.02,2.92-3.02s2.92,1.36,2.92,3.02v5.95Zm-10.46-10.82h-2.4v10.81h2.4V4.09Zm.24-2.64c0-.8-.64-1.44-1.44-1.44s-1.44.64-1.44,1.44.64,1.44,1.44,1.44,1.44-.64,1.44-1.44m-4.85,7.65c0-2.94-2.38-5.33-5.33-5.33-1.12,0-2.14.42-2.92,1.12V.48h-2.4v14.42h2.4v-5.95c0-1.66,1.3-3.02,2.92-3.02s2.92,1.36,2.92,3.02v5.95h2.4v-5.81Zm-20.87,2.58c0,1.96,1.88,3.55,4.21,3.55s4.21-1.62,4.21-3.61c0-1.8-1.48-2.82-3.2-3.14-1.34-.24-2.62-.76-2.62-1.5,0-.64.62-1.16,1.4-1.16.88,0,1.6.6,1.6,1.36h2.4c0-1.88-1.8-3.4-4.01-3.4s-3.81,1.48-3.81,3.31c0,1.72,1.88,2.78,4.19,3.22,1.02.2,1.64.72,1.64,1.42,0,.8-.8,1.46-1.8,1.46s-1.8-.68-1.8-1.5h-2.4Zm-1.96-7.59h-2.4v10.81h2.4V4.09Zm.24-2.64c0-.8-.64-1.44-1.44-1.44s-1.44.64-1.44,1.44.64,1.44,1.44,1.44,1.44-.64,1.44-1.44m-5.55-.96h-2.4v14.42h2.4V.48Zm-10.19,12.58c-1.94,0-3.53-1.6-3.53-3.57s1.58-3.56,3.53-3.56,3.53,1.6,3.53,3.56-1.58,3.57-3.53,3.57m.04-9.29c-1.36,0-2.6.58-3.49,1.48V.48h-2.4v14.42h2.28v-1.36c.86,1.02,2.16,1.68,3.61,1.68,3.25,0,5.89-2.56,5.89-5.73s-2.64-5.73-5.89-5.73m-16.2.32h-2.4v5.83c0,2.92,2.38,5.31,5.31,5.31s5.31-2.38,5.31-5.31v-5.83h-2.4v5.93c0,1.68-1.3,3.04-2.9,3.04s-2.9-1.36-2.9-3.04v-5.93Zm-9.89,8.97c-1.94,0-3.52-1.6-3.52-3.57s1.58-3.56,3.52-3.56,3.53,1.6,3.53,3.56-1.58,3.57-3.53,3.57m.04-9.29c-3.25,0-5.89,2.56-5.89,5.73v9.01h2.4v-4.83c.86.94,2.1,1.54,3.49,1.54,3.24,0,5.89-2.56,5.89-5.73s-2.64-5.73-5.89-5.73m-15.64,9.29h-.1c-1.66,0-3-1.34-3-3v-3.89h3.1v-2.08h-3.1V.48h-2.4v9.53c0,2.88,2.32,5.21,5.21,5.21h.3v-2.16Zm-15.58-8.97h-2.4v5.83c0,2.92,2.38,5.31,5.31,5.31s5.31-2.38,5.31-5.31v-5.83h-2.4v5.93c0,1.68-1.3,3.04-2.9,3.04s-2.9-1.36-2.9-3.04v-5.93Zm-9.47,8.97c-1.94,0-3.5-1.6-3.5-3.57s1.56-3.56,3.5-3.56,3.51,1.6,3.51,3.56-1.56,3.57-3.51,3.57m0-9.29c-3.26,0-5.91,2.56-5.91,5.73s2.64,5.73,5.91,5.73,5.91-2.56,5.91-5.73-2.64-5.73-5.91-5.73m-12.76,9.29c-1.94,0-3.52-1.6-3.52-3.57s1.58-3.56,3.52-3.56,3.53,1.6,3.53,3.56-1.58,3.57-3.53,3.57m.04-9.29c-1.36,0-2.6.58-3.48,1.48V.48h-2.4v14.42h2.28v-1.36c.86,1.02,2.16,1.68,3.6,1.68,3.25,0,5.89-2.56,5.89-5.73s-2.64-5.73-5.89-5.73M5.93,13.06c-1.94,0-3.52-1.6-3.52-3.57s1.58-3.56,3.52-3.56,3.53,1.6,3.53,3.56-1.58,3.57-3.53,3.57m-.04-9.29C2.64,3.77,0,6.33,0,9.49s2.64,5.73,5.89,5.73c1.46,0,2.76-.68,3.6-1.76v1.44h2.28v-5.41c0-3.16-2.62-5.73-5.89-5.73"/>
  <path class="cls-1" d="m64.41,8.82c.28-.38.45-.84.45-1.35,0-1.26-1.02-2.28-2.28-2.28s-2.28,1.02-2.28,2.28c0,.51.17.97.45,1.35.53-.33,1.16-.53,1.83-.53s1.3.2,1.83.53"/>
  <path class="cls-1" d="m62.58,9.53c-1.24,0-2.26,1.01-2.26,2.26s1.01,2.25,2.26,2.25,2.25-1.01,2.25-2.25-1.01-2.26-2.25-2.26"/>
</svg>