<?xml version="1.0" encoding="utf-8"?>
<!-- Generator: Adobe Illustrator 27.8.0, SVG Export Plug-In . SVG Version: 6.00 Build 0)  -->
<svg version="1.1" id="Ebene_1" xmlns="http://www.w3.org/2000/svg" xmlns:xlink="http://www.w3.org/1999/xlink" x="0px" y="0px"
	 viewBox="0 0 470 336.4" style="enable-background:new 0 0 470 336.4;" xml:space="preserve">
<style type="text/css">
	.st0{fill:#EEE7DA;}
</style>
<path class="st0" d="M74,83.2c0,0,0,0.2-0.3,0.2s-0.4,0.3-0.6,0.3s-0.1,0.5,0.2,0.5s-0.1,0.4,0.4,0.2c0.6-0.2,0.6-0.2,0.2,0.3
	C73.5,85,74.6,84,75,83.9c0.2-0.1-0.4,0.8-0.2,0.7c0.6-0.3,0.2-0.2,0.6-0.5s0.5-0.3,0.7-0.5c0.2-0.2,0.2-0.5,0.2-0.6
	s0.2-0.2,0.4-0.5s0.4-0.3,0.4-0.4v-0.4c0,0-0.2-0.4-0.3-0.4c-0.2,0-0.5,0-0.9,0.1s-0.5,0.3-0.8,0.3s-0.2,0.3-0.2,0.4
	S73.9,83.2,74,83.2 M80.7,81.9c0,0-0.9,0.7-1.2,0.7S79.4,83,79.2,83s-0.4,0.5-0.1,0.5s-1.1,1-0.5,0.8c0.6-0.2,1.5-1,1.1-0.5
	c-0.3,0.4,0.4-0.4,0.8-0.5c0.2-0.1,0,0.6,0.2,0.5c0.6-0.3,0.2-0.2,0.6-0.5s1.6-1.1,1.6-1.3s-0.7,0.2-0.5,0s1.5-1.3,1.5-1.4
	s-3,2.2-2.1,1.3c0.9-0.8,0.2-0.6,0-0.6s0.4-0.8,0-0.7s-0.3,0.7-0.6,0.7s-0.5-0.1-0.5,0S80.7,81.9,80.7,81.9 M70.8,81.1
	c0.4-0.5,7.7-7.2,8.4-7.6s-0.3,2.3,0,2.3s1-0.9,1.7-0.9c0.1,0-0.5,0.3,0,0.5s1.3,0.4,1.3,0.4s1.3-0.4,1.7-0.4s-0.1,1.9,0.4,1.9
	s-0.4,1,0.3,1.4c0.7,0.4,1.9,0,2.1,0s0.3,1.1,0.6,1.1s2.2-1.4,2.6-1.1c0.5,0.3-0.4,1.1-0.6,2.4s1.3,0,0.6,1.4
	c-0.7,1.4-3.4,3.3-3.9,3.9c-0.5,0.6-6.5,7-7.5,7.6c-0.6,0.4-0.9-0.6-0.9-1.4c0-0.2-0.4,0.1-0.6,0c-0.2-0.1-0.2-0.8-0.5-0.8
	c-1.2-0.4-2.2,0.7-2.8,0.3c-0.6-0.3-0.1-1-0.3-1.6c-0.2-0.6,0-1.1-0.4-1.2c-0.4-0.2-0.5-0.2-0.9,0s-0.2,0.7-0.4,0.9
	c-0.2,0.1-0.4,0.1-0.8,0c-0.6,0.3-0.7,0-0.4-0.9c0.5-1.4,1.6-2.4,1.7-2.8c0.1-0.4-0.6,0.2-0.8-0.7s0.4-2,0-2c-0.3,0-0.8,0.2-1.5,0.5
	c-0.4,0-0.6-0.2-0.6-0.5c0-0.5,0-1.1,0.8-1.1S70.4,81.6,70.8,81.1 M138.9,328c0.1,0.6,0.7,0.9,1.2,0.8c0.6-0.1,0.9-0.7,0.8-1.2
	c-0.1-0.6-0.7-0.9-1.2-0.8C139.1,326.9,138.7,327.5,138.9,328 M155.9,323.9l0.2,1c0.2,0.8,1,1.4,1.8,1.2l3.7-0.8
	c0.1,0,0.2,0,0.2,0.2c0,0,0,0.1,0,0.1c-1.2,2.1-2.4,3.3-3.8,3.6c-2.1,0.4-4.1-0.4-5.2-2c-0.1-0.5-4.3,0.4-12.5,2.6
	c-1.1,0.2-2.2-0.5-2.4-1.6s0.5-2.2,1.6-2.4c8.4-1.3,12.6-2.2,12.5-2.6c0.4-1.9,1.9-3.6,4-4c1.3-0.3,2.9,0.3,4.9,1.8
	c0.1,0.1,0.1,0.2,0,0.3c0,0-0.1,0.1-0.1,0.1L157,322C156.2,322.2,155.7,323,155.9,323.9 M217,91.4c0.4-0.4,0.4-1.1,0-1.5
	c-0.4-0.4-1.1-0.4-1.5,0c-0.4,0.4-0.4,1.1,0,1.5C215.9,91.8,216.6,91.8,217,91.4 M229.7,79.4l0.7-0.7c0.6-0.6,0.6-1.6,0-2.2
	l-2.6-2.7c-0.1-0.1-0.1-0.2,0-0.3c0,0,0.1-0.1,0.1-0.1c2.4-0.2,4.1,0.2,5.1,1.2c1.5,1.5,1.9,3.7,1.1,5.5c-0.3,0.3,2.7,3.3,9,9
	c0.8,0.8,0.8,2.1,0,2.9s-2.1,0.8-2.9,0c-5.7-6.3-8.7-9.3-9-9c-1.9,0.7-4,0.3-5.5-1.2c-0.9-0.9-1.3-2.6-1.2-5.1
	c0-0.1,0.1-0.2,0.2-0.2c0.1,0,0.1,0,0.1,0.1l2.6,2.7C228.1,80,229.1,80,229.7,79.4 M14.3,12.9l6.5,1.7c0.9,0.2,1.4,1.2,1.2,2
	l-0.9,3.2c-0.2,0.9-1.2,1.4-2,1.2l-6.5-1.7c-0.9-0.2-1.4-1.2-1.2-2l0.9-3.2C12.5,13.2,13.4,12.7,14.3,12.9 M3,9.9l6.5,1.7
	c0.9,0.2,1.4,1.2,1.2,2.1l-0.9,3.2c-0.2,0.9-1.2,1.4-2.1,1.2l-6.5-1.7c-0.9-0.2-1.4-1.2-1.2-2.1l0.9-3.2C1.2,10.2,2.1,9.7,3,9.9
	 M10.8,3.3L17.3,5c0.9,0.2,1.4,1.2,1.2,2l-0.9,3.2c-0.2,0.9-1.2,1.4-2.1,1.2L9,9.8C8.2,9.5,7.6,8.6,7.9,7.7l0.9-3.2
	C9,3.6,9.9,3.1,10.8,3.3 M11.8,173.7l-0.8-1.4l-1.4,0.8l0.8,1.4L11.8,173.7z M17.6,163.6l-1.5,0.8l1.3,2.2l1.5-0.8L17.6,163.6z
	 M20.5,168.7l-0.8-1.4l-1.5,0.8l0.8,1.4L20.5,168.7z M11.8,167l-1.4,0.8l1.3,2.2l1.4-0.8L11.8,167z M13.2,166.1l1.3,2.2l1.4-0.8
	l-1.3-2.2L13.2,166.1z M14.7,172.1l-0.8-1.4l-1.4,0.8l0.8,1.4L14.7,172.1z M16.1,171.2l1.5-0.8l-0.8-1.4l-1.4,0.8L16.1,171.2z
	 M17,172.7l0.8,1.4c0.2,0.4,0.1,0.9-0.3,1.1s-0.9,0.1-1.1-0.3l-0.8-1.4l-1.4,0.8l0.8,1.4c0.2,0.4,0.1,0.9-0.3,1.1
	c-0.4,0.2-0.9,0.1-1.1-0.3l-0.8-1.4l-1.4,0.8l0.8,1.4c0.2,0.4,0.1,0.9-0.3,1.1c-0.4,0.2-0.9,0.1-1.1-0.3L8,173.9l-1.4,0.8
	c-0.4,0.2-0.9,0.1-1.2-0.3c-0.2-0.4-0.1-0.9,0.3-1.1l4.4-2.5l-1.3-2.2l-2.2,1.3c-0.4,0.2-0.9,0.1-1.2-0.3c-0.2-0.4-0.1-0.9,0.3-1.1
	l5.1-2.9l-0.8-1.4c-0.2-0.4-0.1-0.9,0.3-1.1c0.4-0.2,0.9-0.1,1.1,0.3l0.8,1.4l1.4-0.8l-1.7-2.9c-0.2-0.4-0.1-0.9,0.3-1.1
	c0.4-0.2,0.9-0.1,1.1,0.3l1.7,2.9l1.4-0.8l-2.9-5.1c-0.2-0.4-0.1-0.9,0.3-1.1c0.4-0.2,0.9-0.1,1.1,0.3l2.9,5.1l0.7-0.4
	c0.4-0.2,0.9-0.1,1.1,0.3s0.1,0.9-0.3,1.1l-0.7,0.4l2.9,5.1l0.7-0.4c0.4-0.2,0.9-0.1,1.1,0.3s0.1,0.9-0.3,1.1l-0.7,0.4l0.8,1.4
	c0.2,0.4,0.1,0.9-0.3,1.1c-0.4,0.2-0.9,0.1-1.1-0.3l-0.8-1.4l-1.5,0.8l0.8,1.4c0.2,0.4,0.1,0.9-0.3,1.1s-0.9,0.1-1.1-0.3l-0.8-1.4
	L17,172.7L17,172.7z M145.9,17.9l-0.8-1.5l-1.4,0.8l0.8,1.5L145.9,17.9z M151.7,7.8l-1.4,0.8l1.3,2.2l1.4-0.8L151.7,7.8z
	 M154.6,12.9l-0.8-1.4l-1.4,0.8l0.8,1.4L154.6,12.9z M145.8,11.1l-1.4,0.8l1.3,2.2l1.4-0.8L145.8,11.1z M147.3,10.3l1.3,2.2l1.4-0.8
	l-1.3-2.2L147.3,10.3z M148.8,16.2l-0.8-1.4l-1.4,0.8l0.8,1.4L148.8,16.2z M150.2,15.4l1.4-0.8l-0.8-1.4l-1.4,0.8L150.2,15.4z
	 M151.1,16.8l0.8,1.5c0.2,0.4,0.1,0.9-0.3,1.1c-0.4,0.2-0.9,0.1-1.1-0.3l-0.8-1.5l-1.4,0.8L149,20c0.2,0.4,0.1,0.9-0.3,1.1
	s-0.9,0.1-1.1-0.3l-0.8-1.5l-1.4,0.8l0.8,1.5c0.2,0.4,0.1,0.9-0.3,1.1s-0.9,0.1-1.1-0.3l-2.5-4.4l-1.4,0.8c-0.4,0.2-0.9,0.1-1.1-0.3
	c-0.2-0.4-0.1-0.9,0.3-1.1l4.4-2.5l-1.3-2.2l-2.2,1.3c-0.4,0.2-0.9,0.1-1.1-0.3c-0.2-0.4-0.1-0.9,0.3-1.1l5.1-2.9l-0.8-1.4
	c-0.2-0.4-0.1-0.9,0.3-1.1s0.9-0.1,1.1,0.3l0.8,1.4l1.4-0.8l-1.7-2.9c-0.2-0.4-0.1-0.9,0.3-1.2c0.4-0.2,0.9-0.1,1.1,0.3l1.7,2.9
	l1.4-0.8l-2.9-5.1c-0.2-0.4-0.1-0.9,0.3-1.1s0.9-0.1,1.1,0.3l2.9,5.1l0.7-0.4c0.4-0.2,0.9-0.1,1.1,0.3c0.2,0.4,0.1,0.9-0.3,1.1
	l-0.7,0.4L156,12l0.7-0.4c0.4-0.2,0.9-0.1,1.1,0.3c0.2,0.4,0.1,0.9-0.3,1.1l-0.7,0.4l0.8,1.4c0.2,0.4,0.1,0.9-0.3,1.1
	c-0.4,0.2-0.9,0.1-1.1-0.3l-0.8-1.4l-1.4,0.8l0.8,1.5c0.2,0.4,0.1,0.9-0.3,1.1s-0.9,0.1-1.1-0.3l-0.8-1.4L151.1,16.8L151.1,16.8z
	 M9.3,318.3l-0.7-0.4L7,320.6l4,7.4c0,0,0,0.1,0,0.1c0.5,0.5,0.6,1.3,0.2,2l-2.1,3.6c-0.5,0.8-1.5,1.1-2.3,0.6
	c-0.8-0.5-1.1-1.5-0.6-2.3l2.1-3.6c0.2-0.3,0.4-0.5,0.6-0.6L5.3,321c-0.1-0.3-0.1-0.6,0-0.8l2.2-3.8c0.2-0.4,0.7-0.5,1.1-0.3
	l1.4,0.8l0.4-0.7c0.5-0.8,1.5-1.1,2.3-0.6l7.3,4.2c0.8,0.5,1.1,1.5,0.6,2.3l-1.7,2.9c-0.5,0.8-1.5,1.1-2.3,0.6l-7.3-4.2
	c-0.8-0.5-1.1-1.5-0.6-2.3L9.3,318.3L9.3,318.3z M144.2,174.7l-0.2,0.8l3,0.8l6.1-5.8c0,0,0.1-0.1,0.1-0.1c0.4-0.6,1.1-0.9,1.8-0.7
	l4.1,1.1c0.9,0.2,1.4,1.2,1.2,2.1s-1.2,1.4-2.1,1.2l-4.1-1.1c-0.3-0.1-0.6-0.2-0.8-0.4l-5.6,5.3c-0.2,0.2-0.5,0.3-0.8,0.2l-4.3-1.1
	c-0.4-0.1-0.7-0.6-0.6-1l0.4-1.6l-0.8-0.2c-0.9-0.2-1.4-1.2-1.2-2.1l2.2-8.1c0.2-0.9,1.2-1.4,2.1-1.2l3.2,0.9
	c0.9,0.2,1.4,1.2,1.2,2.1l-2.2,8.1c-0.2,0.9-1.2,1.4-2.1,1.2L144.2,174.7L144.2,174.7z M76.5,252.7l-4.7,4.7c-0.7,0.6-1.7,0.6-2.4,0
	l-2.4-2.4c-0.7-0.6-0.7-1.7,0-2.4l4.7-4.7c0.7-0.6,1.7-0.6,2.4,0l2.4,2.4C77.1,251,77.1,252.1,76.5,252.7 M84.8,244.4l-4.7,4.7
	c-0.7,0.6-1.7,0.6-2.4,0l-2.4-2.4c-0.7-0.6-0.7-1.7,0-2.4l4.7-4.7c0.7-0.6,1.7-0.6,2.4,0l2.4,2.4C85.4,242.7,85.4,243.8,84.8,244.4
	 M86.5,254.5l-4.7,4.7c-0.7,0.6-1.7,0.6-2.4,0l-2.4-2.4c-0.7-0.7-0.7-1.7,0-2.4l4.7-4.7c0.7-0.6,1.7-0.6,2.4,0l2.4,2.4
	C87.2,252.8,87.2,253.8,86.5,254.5"/>
<path class="st0" d="M396.1,253.3c0,0,0-0.2,0.3-0.2s0.4-0.3,0.6-0.3s0.1-0.5-0.2-0.5s0.1-0.4-0.4-0.2c-0.5,0.2-0.5,0.2-0.2-0.3
	c0.3-0.4-0.8,0.6-1.2,0.7c-0.2,0.1,0.4-0.8,0.2-0.7c-0.6,0.3-0.2,0.2-0.6,0.5s-0.5,0.3-0.7,0.5c-0.2,0.2-0.2,0.5-0.2,0.6
	s-0.2,0.2-0.4,0.5c-0.2,0.2-0.4,0.3-0.4,0.4v0.4c0,0,0.2,0.4,0.3,0.4s0.5,0,0.9-0.1s0.5-0.3,0.8-0.3s0.2-0.3,0.2-0.4
	S396.1,253.3,396.1,253.3 M389.3,254.6c0,0,0.9-0.7,1.2-0.7s0.1-0.5,0.3-0.5s0.4-0.5,0.1-0.5s1.1-1,0.5-0.8c-0.5,0.2-1.5,1-1.1,0.5
	c0.3-0.4-0.4,0.4-0.8,0.5c-0.2,0.1,0-0.6-0.2-0.5c-0.6,0.3-0.2,0.2-0.6,0.5s-1.6,1.1-1.6,1.3s0.7-0.2,0.5,0s-1.5,1.3-1.5,1.4
	s3-2.1,2.1-1.3c-1,0.9-0.2,0.6,0,0.6s-0.4,0.8,0,0.7s0.3-0.7,0.6-0.7s0.5,0.1,0.5,0S389.3,254.6,389.3,254.6 M399.2,255.3
	c-0.4,0.5-7.7,7.2-8.4,7.6s0.4-2.3,0-2.3s-1,0.9-1.7,0.9c-0.1,0,0.5-0.3,0-0.5s-1.3-0.4-1.3-0.4s-1.3,0.4-1.7,0.4s0.1-1.9-0.4-1.9
	s0.4-1-0.3-1.4c-0.7-0.4-1.9,0-2.1,0s-0.3-1.1-0.6-1.1s-2.1,1.4-2.6,1.1c-0.5-0.3,0.4-1.1,0.6-2.4s-1.3,0-0.6-1.4
	c0.7-1.4,3.4-3.3,3.9-3.9c0.5-0.6,6.5-7,7.5-7.6c0.6-0.4,0.9,0.6,0.9,1.4c0,0.2,0.4-0.1,0.6,0c0.2,0.1,0.2,0.8,0.5,0.8
	c1.2,0.4,2.2-0.7,2.8-0.3c0.6,0.4,0.1,1,0.3,1.6c0.2,0.6,0,1.1,0.4,1.2c0.4,0.2,0.5,0.2,0.9,0c0.4-0.2,0.2-0.7,0.5-0.9
	c0.2-0.1,0.5-0.1,0.8,0c0.6-0.3,0.7,0,0.4,0.9c-0.5,1.4-1.6,2.4-1.7,2.8s0.6-0.2,0.9,0.7s-0.4,2,0,2c0.3,0,0.8-0.2,1.5-0.5
	c0.4,0,0.5,0.2,0.5,0.5c0,0.5,0,1.1-0.8,1.1S399.6,254.8,399.2,255.3 M331.2,8.4c-0.1-0.6-0.7-0.9-1.2-0.8c-0.6,0.1-0.9,0.7-0.8,1.2
	s0.7,0.9,1.2,0.8S331.3,9,331.2,8.4 M314.2,12.5l-0.2-1c-0.2-0.8-1-1.4-1.8-1.2l-3.7,0.8c-0.1,0-0.2-0.1-0.2-0.2c0-0.1,0-0.1,0-0.1
	c1.2-2.1,2.5-3.3,3.8-3.6c2.1-0.4,4.1,0.4,5.2,2c0.1,0.4,4.3-0.4,12.5-2.7c1.1-0.2,2.2,0.5,2.4,1.6s-0.5,2.2-1.6,2.4
	c-8.4,1.3-12.6,2.2-12.5,2.6c-0.4,1.9-1.9,3.6-4,4c-1.3,0.3-2.9-0.3-4.9-1.8c-0.1-0.1-0.1-0.2,0-0.3c0,0,0.1-0.1,0.1-0.1l3.7-0.8
	C313.8,14.2,314.3,13.4,314.2,12.5 M253.1,245c-0.4,0.4-0.4,1.1,0,1.5c0.4,0.4,1.1,0.4,1.5,0c0.4-0.4,0.4-1.1,0-1.5
	C254.1,244.6,253.5,244.6,253.1,245 M239.3,257l-0.7,0.7c-0.6,0.6-0.6,1.6,0,2.2l2.6,2.6c0.1,0.1,0.1,0.2,0,0.3c0,0-0.1,0.1-0.1,0.1
	c-2.4,0.1-4.1-0.2-5.1-1.2c-1.5-1.5-1.9-3.7-1.1-5.5c0.3-0.3-2.7-3.3-9-9c-0.8-0.8-0.8-2.1,0-2.9s2.1-0.8,2.9,0c5.7,6.3,8.7,9.4,9,9
	c1.9-0.7,4-0.3,5.5,1.1c0.9,0.9,1.3,2.6,1.2,5.1c0,0.1-0.1,0.2-0.2,0.2c0,0-0.1,0-0.1-0.1l-2.6-2.6
	C240.9,256.4,239.9,256.4,239.3,257 M455.7,323.5l-6.5-1.7c-0.9-0.2-1.4-1.2-1.2-2l0.9-3.2c0.2-0.9,1.2-1.4,2-1.2l6.5,1.7
	c0.9,0.2,1.4,1.2,1.2,2l-0.9,3.2C457.5,323.2,456.6,323.7,455.7,323.5 M467.1,326.5l-6.5-1.7c-0.9-0.2-1.4-1.2-1.2-2l0.9-3.2
	c0.2-0.9,1.2-1.4,2-1.2l6.5,1.7c0.9,0.2,1.4,1.2,1.2,2l-0.9,3.2C468.9,326.2,467.9,326.8,467.1,326.5 M459.2,333.1l-6.5-1.7
	c-0.9-0.2-1.4-1.2-1.2-2l0.9-3.2c0.2-0.9,1.2-1.4,2-1.2l6.5,1.7c0.9,0.2,1.4,1.2,1.2,2l-0.9,3.2C461,332.8,460.1,333.3,459.2,333.1
	 M458.2,162.7l0.8,1.4l1.5-0.8l-0.8-1.4L458.2,162.7z M452.5,172.8l1.5-0.8l-1.3-2.2l-1.5,0.8L452.5,172.8z M449.5,167.7l0.8,1.4
	l1.5-0.8l-0.8-1.4L449.5,167.7z M458.3,169.4l1.5-0.8l-1.3-2.2l-1.5,0.8L458.3,169.4z M456.8,170.3l-1.3-2.2l-1.5,0.8l1.3,2.2
	L456.8,170.3z M455.3,164.4l0.8,1.4l1.5-0.8l-0.8-1.4L455.3,164.4z M453.9,165.2l-1.5,0.8l0.8,1.4l1.5-0.8L453.9,165.2z M453,163.8
	l-0.8-1.4c-0.2-0.4-0.1-0.9,0.3-1.1s0.9-0.1,1.1,0.3l0.8,1.4l1.5-0.8l-0.8-1.4c-0.2-0.4-0.1-0.9,0.3-1.1s0.9-0.1,1.1,0.3l0.8,1.4
	l1.5-0.8L458,159c-0.2-0.4-0.1-0.9,0.3-1.1c0.4-0.2,0.9-0.1,1.1,0.3l2.5,4.4l1.5-0.8c0.4-0.2,0.9-0.1,1.1,0.3s0.1,0.9-0.3,1.1
	l-4.4,2.5l1.3,2.2l2.2-1.3c0.4-0.2,0.9-0.1,1.1,0.3c0.2,0.4,0.1,0.9-0.3,1.1l-5.1,2.9l0.8,1.4c0.2,0.4,0.1,0.9-0.3,1.1
	s-0.9,0.1-1.1-0.3l-0.8-1.4l-1.5,0.8l1.7,2.9c0.2,0.4,0.1,0.9-0.3,1.1s-0.9,0.1-1.1-0.3l-1.7-2.9l-1.5,0.8l2.9,5.1
	c0.2,0.4,0.1,0.9-0.3,1.1c-0.4,0.2-0.9,0.1-1.1-0.3l-2.9-5.1l-0.7,0.4c-0.4,0.2-0.9,0.1-1.1-0.3s-0.1-0.9,0.3-1.1l0.7-0.4l-2.9-5.1
	l-0.7,0.4c-0.4,0.2-0.9,0.1-1.1-0.3s-0.1-0.9,0.3-1.1l0.7-0.4l-0.8-1.4c-0.2-0.4-0.1-0.9,0.3-1.1c0.4-0.2,0.9-0.1,1.1,0.3l0.8,1.4
	l1.5-0.8l-0.8-1.4c-0.2-0.4-0.1-0.9,0.3-1.1s0.9-0.1,1.1,0.3l0.8,1.4L453,163.8L453,163.8z M324.2,318.5l0.8,1.5l1.5-0.8l-0.8-1.5
	L324.2,318.5z M318.4,328.6l1.5-0.8l-1.3-2.2l-1.5,0.8L318.4,328.6z M315.5,323.6l0.8,1.5l1.5-0.8l-0.8-1.5L315.5,323.6z
	 M324.2,325.3l1.5-0.8l-1.3-2.2l-1.5,0.8L324.2,325.3z M322.8,326.1l-1.3-2.2l-1.5,0.8l1.3,2.2L322.8,326.1z M321.3,320.2l0.8,1.5
	l1.5-0.8l-0.8-1.5L321.3,320.2z M319.8,321l-1.5,0.8l0.8,1.5l1.5-0.8L319.8,321z M319,319.6l-0.8-1.5c-0.2-0.4-0.1-0.9,0.3-1.1
	c0.4-0.2,0.9-0.1,1.1,0.3l0.8,1.5l1.5-0.8l-0.8-1.5c-0.2-0.4-0.1-0.9,0.3-1.1s0.9-0.1,1.1,0.3l0.8,1.5l1.5-0.8l-0.8-1.5
	c-0.2-0.4-0.1-0.9,0.3-1.1s0.9-0.1,1.1,0.3l2.5,4.4l1.5-0.8c0.4-0.2,0.9-0.1,1.1,0.3s0.1,0.9-0.3,1.1l-4.4,2.5l1.3,2.2l2.2-1.3
	c0.4-0.2,0.9-0.1,1.1,0.3s0.1,0.9-0.3,1.1l-5.1,2.9l0.8,1.5c0.2,0.4,0.1,0.9-0.3,1.1c-0.4,0.2-0.9,0.1-1.1-0.3l-0.8-1.5l-1.5,0.8
	l1.7,2.9c0.2,0.4,0.1,0.9-0.3,1.1c-0.4,0.2-0.9,0.1-1.1-0.3l-1.7-2.9l-1.5,0.8l2.9,5.1c0.2,0.4,0.1,0.9-0.3,1.1s-0.9,0.1-1.1-0.3
	l-2.9-5.1l-0.7,0.4c-0.4,0.2-0.9,0.1-1.1-0.3c-0.2-0.4-0.1-0.9,0.3-1.1l0.7-0.4l-2.9-5.1l-0.7,0.4c-0.4,0.2-0.9,0.1-1.1-0.3
	c-0.2-0.4-0.1-0.9,0.3-1.1l0.7-0.4l-0.8-1.5c-0.2-0.4-0.1-0.9,0.3-1.1s0.9-0.1,1.1,0.3l0.8,1.5l1.5-0.8l-0.8-1.5
	c-0.2-0.4-0.1-0.9,0.3-1.1s0.9-0.1,1.1,0.3l0.8,1.5L319,319.6L319,319.6z M460.7,18.1l0.7,0.4l1.6-2.7l-4-7.4c0,0,0-0.1,0-0.1
	c-0.5-0.5-0.6-1.3-0.2-1.9l2.1-3.6c0.5-0.8,1.5-1.1,2.3-0.6c0.8,0.5,1.1,1.5,0.6,2.3L461.7,8c-0.2,0.3-0.4,0.5-0.6,0.6l3.6,6.8
	c0.1,0.3,0.1,0.6,0,0.8l-2.2,3.8c-0.2,0.4-0.7,0.5-1.1,0.3l-1.5-0.8l-0.4,0.7c-0.5,0.8-1.5,1.1-2.3,0.6l-7.3-4.2
	c-0.8-0.5-1.1-1.5-0.6-2.3l1.7-2.9c0.5-0.8,1.5-1.1,2.3-0.6l7.3,4.2c0.8,0.5,1.1,1.5,0.6,2.3L460.7,18.1L460.7,18.1z M325.8,161.8
	l0.2-0.8l-3-0.8l-6.1,5.8c0,0,0,0.1-0.1,0.1c-0.4,0.6-1.1,0.9-1.8,0.7l-4-1.1c-0.9-0.2-1.4-1.2-1.2-2.1c0.2-0.9,1.2-1.4,2-1.2l4,1.1
	c0.3,0.1,0.6,0.2,0.8,0.4l5.6-5.3c0.2-0.2,0.5-0.3,0.8-0.2l4.3,1.1c0.5,0.1,0.7,0.6,0.6,1l-0.4,1.6l0.8,0.2c0.9,0.2,1.4,1.2,1.2,2.1
	l-2.2,8.1c-0.2,0.9-1.2,1.4-2,1.2l-3.2-0.9c-0.9-0.2-1.4-1.2-1.2-2.1l2.2-8.1c0.2-0.9,1.2-1.4,2-1.2L325.8,161.8L325.8,161.8z
	 M393.6,83.7l4.7-4.7c0.6-0.7,1.7-0.7,2.4,0l2.4,2.4c0.6,0.7,0.6,1.7,0,2.4l-4.7,4.7c-0.6,0.7-1.7,0.7-2.4,0l-2.4-2.4
	C392.9,85.4,392.9,84.4,393.6,83.7 M385.3,92l4.7-4.7c0.6-0.7,1.7-0.7,2.4,0l2.4,2.4c0.6,0.7,0.6,1.7,0,2.4l-4.7,4.7
	c-0.6,0.7-1.7,0.7-2.4,0l-2.4-2.4C384.6,93.7,384.6,92.6,385.3,92 M383.5,81.9l4.7-4.7c0.6-0.7,1.7-0.7,2.4,0l2.4,2.4
	c0.6,0.7,0.6,1.7,0,2.4l-4.7,4.7c-0.6,0.7-1.7,0.7-2.4,0l-2.4-2.4C382.8,83.6,382.8,82.6,383.5,81.9"/>
</svg>
