<?xml version="1.0" encoding="UTF-8"?>
<svg id="Ebene_1" data-name="Ebene 1" xmlns="http://www.w3.org/2000/svg" viewBox="0 0 204.77 221.06">
  <defs>
    <style>
      .cls-1 {
        fill: #4b8764;
        fill-rule: evenodd;
      }

      .cls-1, .cls-2 {
        stroke-width: 0px;
      }

      .cls-2 {
        fill: #262627;
      }
    </style>
  </defs>
  <path class="cls-1" d="m137.33,158.89c.85-1.16,1.68-3.4,2.26-4.98.57-1.54,2.58-7.15,3.06-8.48.82-2.29,1.39-11.24.7-12.17-.53-.14-.52-.48-.94-.43l-.25-.13c-.24-.07.04.64-.19.61-.49.45-2.43,8.85-2.73,10.39-.26,1.39-1.33,7.05-1.63,8.86-.34,2.08-.91,5.25-.3,6.33"/>
  <path class="cls-2" d="m136.31,158.82s.02-.04.09-.1c.46-.44,1.03-1.53,1.68-3.13.22-.56.38-.96.75-1.96.24-.65.61-1.38,1.33-2.73l.07-.12c.91-1.69,1.18-2.22,1.36-2.73,1.14-3.22,1.5-13.99.79-14.91-.15.13-.34.38-.55.73-.43.72-.89,1.79-1.37,3.13-.82,2.3-1.63,5.31-2,7.24-.13.67-.22,1.18-.33,1.77-.17.93-.34,1.8-.49,2.63l-.03.15c-.37,2.02-.64,3.52-.77,4.28h0c.01-.09-.14.84-.18,1.09-.08.49-.14.9-.2,1.29-.26,1.93-.21,3.22-.13,3.37h-.03Zm-.32-10.33l.03-.15c.15-.83.32-1.71.49-2.63.11-.59.21-1.1.33-1.77,1.19-6.27,3.61-13.07,5.88-12.45,1.41.38,1.76,3.15,1.61,7.78-.11,3.73-.6,7.63-1.2,9.33-.22.63-.5,1.16-1.47,2.96l-.06.12c-.69,1.28-1.03,1.97-1.24,2.52-.38,1.02-.53,1.43-.77,2-.74,1.83-1.38,3.05-2.07,3.71-.48.45-1.02.67-1.6.51-1.42-.38-1.52-2.02-1.09-5.19.06-.41.12-.83.2-1.33.04-.26.2-1.19.18-1.1.13-.77.4-2.27.77-4.31"/>
  <path class="cls-1" d="m134.17,160.43c.75-1.66,2.7-3.97,4.08-5.61,1.34-1.59,6.28-7.31,7.46-8.66,2.02-2.33,11.54-8.56,13-8.39.49.49.85.27,1.06.76l.3.18c.23.23-.74.37-.56.59-.2.83-8.24,8.21-9.76,9.5-1.37,1.16-6.96,5.87-8.77,7.33-2.09,1.68-5.23,4.29-6.8,4.29"/>
  <path class="cls-2" d="m135.14,160.82c.3-.65.85-1.49,1.61-2.5.26-.34.54-.7.85-1.08.41-.5.7-.85,1.44-1.73.55-.65,1.12-1.5,2.07-3.01q.08-.13.16-.26c1.35-2.14,1.74-2.74,2.2-3.26,1.32-1.52,5.18-4.39,9.06-6.75,1.97-1.2,3.78-2.16,5.16-2.73.7-.29,1.28-.47,1.69-.54,0,0,.01,0,.02,0-.08.23-.21.53-.41.88-.53.92-1.42,2.11-2.6,3.47-2.03,2.34-4.85,5.12-6.75,6.72-3.22,2.72-7.33,6.17-8.75,7.32-.08.07-.69.56-.88.71-.35.28-.65.52-.94.75-.36.28-.7.54-1.02.78-1.03.77-1.88,1.31-2.54,1.61-.23.11-.43.18-.59.21.03-.15.1-.34.21-.57m-1.78,2.13c1.25,1.26,3.03.45,5.94-1.7.34-.25.68-.52,1.06-.81.3-.23.6-.47.96-.76.19-.15.79-.64.88-.71,1.44-1.16,5.56-4.61,8.79-7.35,6.17-5.21,12.18-12.14,10.07-14.26-1.3-1.31-4.57.04-9.6,3.1-4.05,2.46-8.05,5.44-9.55,7.16-.56.65-.96,1.24-2.39,3.52q-.08.13-.16.25c-.9,1.42-1.44,2.23-1.91,2.78-.75.89-1.05,1.25-1.47,1.76-.32.4-.62.78-.9,1.14-2.16,2.84-2.98,4.63-1.74,5.89"/>
  <path class="cls-2" d="m131.91,184.17c5.12-35.79,14.33-61.08,28.2-86.22.16-.3,1.2-2.15,1.54-2.77.69-1.26,1.31-2.4,1.93-3.58,1.62-3.09,3.1-6.16,4.5-9.41,5.58-12.94,9.01-26.59,9.44-41.33.17-5.67-.12-10.83-.7-15.75-.12-1.02-1.05-1.75-2.07-1.63-1.02.12-1.75,1.05-1.63,2.07.57,4.75.84,9.73.68,15.2-.42,14.23-3.74,27.44-9.14,39.97-1.36,3.16-2.8,6.15-4.38,9.16-.6,1.16-1.21,2.27-1.89,3.51-.34.61-1.37,2.47-1.54,2.77-14.07,25.51-23.43,51.22-28.62,87.49-.15,1.02.56,1.96,1.58,2.11,1.02.15,1.96-.56,2.11-1.58"/>
  <path class="cls-2" d="m145.96,124.72c-4.08-29.6-11.02-51.56-20.09-68.64-.37-.7-1.24-.97-1.94-.6s-.97,1.24-.6,1.94c8.9,16.78,15.75,38.42,19.78,67.69.11.79.83,1.33,1.62,1.22.79-.11,1.33-.83,1.23-1.62"/>
  <path class="cls-1" d="m166.9,79.81c1.01-1.62,3.35-3.8,4.99-5.36,1.6-1.51,7.47-6.95,8.87-8.23,2.41-2.21,12.97-7.93,14.4-7.68.41.51.81.31.94.81l.27.2c.19.24-.79.33-.65.56-.33.81-9.6,7.74-11.33,8.94-1.56,1.08-7.93,5.49-9.98,6.85-2.36,1.56-5.93,4-7.51,3.92"/>
  <path class="cls-2" d="m167.79,80.35c.4-.63,1.07-1.43,1.98-2.38.3-.32.63-.65.99-1,.52-.51.88-.85,1.84-1.76,1.39-1.31,7.1-6.6,8.86-8.22,1.59-1.46,5.12-3.65,8.52-5.29,1.72-.83,3.27-1.45,4.45-1.78.5-.14.92-.22,1.24-.24-.12.23-.3.51-.55.84-.68.89-1.78,2.04-3.19,3.34-2.41,2.22-5.7,4.85-7.87,6.35-1.67,1.16-3.18,2.2-4.8,3.32-2.44,1.68-4.25,2.92-5.16,3.52-.07.05-.76.5-.97.64-.39.26-.72.47-1.04.68-.35.23-.68.43-1,.63-1.22.75-2.21,1.28-2.97,1.58-.21.08-.4.14-.56.18.06-.12.13-.25.23-.4m4.4.41c.33-.2.67-.42,1.03-.65.33-.21.66-.43,1.06-.69.21-.14.9-.6.97-.64.92-.61,2.74-1.85,5.19-3.54,1.62-1.12,3.13-2.16,4.81-3.32,7.08-4.9,14.12-11.39,12.3-13.65-1.12-1.39-4.04-.58-8.46,1.55-3.57,1.72-7.26,4.01-9.03,5.63-1.77,1.62-7.48,6.92-8.88,8.24-.98.92-1.34,1.27-1.87,1.79-.37.37-.72.71-1.04,1.04-2.58,2.69-3.63,4.34-2.54,5.7,1.12,1.39,3.02.67,6.46-1.46"/>
  <path class="cls-1" d="m166.79,81.43c-.18-1.91-1.41-4.81-2.27-6.87-.84-2-3.98-9.21-4.73-10.92-1.3-2.94-9.1-11.91-10.71-12.12-.7.38-1,.05-1.39.51l-.39.11c-.32.18.64.57.38.75-.09.9,5.74,10.67,6.88,12.39,1.03,1.56,5.23,7.91,6.61,9.9,1.6,2.29,3.97,5.82,5.63,6.24"/>
  <path class="cls-2" d="m147.86,52.37s.03,0,.02.06c-.04.26,0,.67.1,1.19.22,1.08.73,2.53,1.48,4.24,1.29,2.94,3.26,6.55,4.68,8.71.87,1.32,2.07,3.13,3.17,4.79,1.6,2.41,2.81,4.21,3.43,5.09.02.02.56.8.73,1.04.29.42.54.77.79,1.11.49.68.94,1.26,1.36,1.76,1.15,1.37,1.98,1.95,2.06,1.91-.02,0,.05-.26-.04-.92-.1-.8-.41-1.88-.9-3.2-.16-.45-.35-.92-.56-1.44-.2-.49-.33-.81-.71-1.72-.69-1.64-3.54-8.2-4.73-10.9-1.82-4.15-9.6-12.14-10.91-11.71l.02-.02Zm18.9,31.91c-1.52.82-3.01-.2-4.88-2.45-.46-.55-.93-1.17-1.45-1.89-.25-.35-.51-.71-.81-1.14-.17-.24-.71-1.03-.73-1.05-.63-.9-1.84-2.7-3.46-5.13-1.1-1.66-2.3-3.47-3.17-4.79-4.61-6.98-8.49-15.82-5.54-17.42,1.75-.95,4.41.83,7.77,4.28,2.78,2.85,5.37,6.29,6.34,8.49,1.19,2.72,4.04,9.28,4.74,10.94.39.93.52,1.24.73,1.75.22.54.41,1.03.58,1.51,1.37,3.73,1.66,5.94-.11,6.9"/>
  <path class="cls-1" d="m133.12,172.75c1.98-2.69,6.29-6.31,9.34-8.88,2.96-2.5,8.52-8.88,11.11-11,4.45-3.66,28.68-15.59,31.12-15.14.64.88,1.35.55,1.49,1.39l.44.34c.29.4-1.41.53-1.21.92-.68,1.35-17.58,12.76-20.72,14.73-2.84,1.78-14.39,9.02-18.11,11.25-4.28,2.57-10.76,6.57-13.46,6.39"/>
  <path class="cls-2" d="m133.92,174.09c.2-.67.64-1.54,1.29-2.53,1.33-2.02,3.4-4.29,5.52-6.08,1.21-1.02,2.62-2.32,5.64-5.15l.04-.04c3.59-3.37,4.83-4.51,5.91-5.4,2.9-2.38,11.08-6.74,19.27-10.28,4.11-1.78,7.84-3.19,10.63-4,1.12-.32,2.07-.55,2.81-.66-.21.29-.47.61-.77.95-1.3,1.49-3.35,3.39-5.97,5.54-4.47,3.68-10.48,8.01-14.44,10.49-2.75,1.72-5.74,3.6-8.72,5.45-4.42,2.75-7.72,4.79-9.36,5.78-.2.12-1.39.83-1.74,1.05-.71.42-1.3.77-1.87,1.11-.59.35-1.14.66-1.67.96-2.25,1.27-4.06,2.16-5.43,2.64-.46.17-.86.28-1.18.33.01-.06.03-.11.05-.18m-3.18,2.71c1.83,2.53,5.13,1.36,11.57-2.26.55-.31,1.12-.64,1.73-.99.59-.34,1.19-.7,1.9-1.13.36-.22,1.54-.93,1.74-1.05,1.67-1,4.98-3.04,9.42-5.81,2.98-1.86,5.98-3.73,8.73-5.45,4.09-2.56,10.24-6.98,14.83-10.77,7.06-5.82,10.12-9.31,8.17-12-1.84-2.54-8.1-.73-18.73,3.88-8.49,3.67-16.91,8.15-20.15,10.82-1.17.96-2.41,2.1-6.09,5.56l-.04.04c-2.96,2.78-4.35,4.06-5.49,5.02-5.73,4.83-9.84,11.05-7.59,14.16"/>
  <path class="cls-1" d="m132.38,173.66c-.12-2.69-1.63-6.83-2.69-9.76-1.03-2.85-4.91-13.15-5.84-15.59-1.6-4.21-11.88-17.28-14.11-17.69-1.01.48-1.41,0-1.99.61l-.55.13c-.46.22.86.85.48,1.08-.19,1.25,7.26,15.31,8.73,17.81,1.33,2.25,6.74,11.43,8.54,14.3,2.07,3.31,5.14,8.41,7.43,9.11"/>
  <path class="cls-2" d="m130.72,174.8s-.01-.02,0-.08c.08-.26.1-.69.05-1.26-.09-1.15-.46-2.68-1.05-4.59-.21-.66-.44-1.35-.7-2.11-.23-.66-.38-1.07-.83-2.32-.89-2.44-4.61-12.38-5.83-15.57-1.04-2.72-4.22-7.43-7.67-11.34-3.19-3.62-6.13-5.85-6.75-5.78l.05-.04s.03.01.01.09c-.07.36-.05.93.06,1.67.23,1.52.85,3.59,1.78,6.03,1.59,4.2,4.09,9.38,5.93,12.5,1.14,1.94,2.67,4.53,4.09,6.91,2.07,3.49,3.64,6.09,4.43,7.36,0,0,.73,1.18.96,1.53.38.61.71,1.13,1.03,1.62.75,1.16,1.43,2.12,2.06,2.92,1.29,1.65,2.25,2.37,2.42,2.41l-.03.02Zm-4.89-.47c-.69-.89-1.42-1.92-2.22-3.15-.33-.51-.67-1.05-1.07-1.67-.22-.36-.95-1.53-.96-1.54-.81-1.3-2.38-3.9-4.46-7.42-1.42-2.39-2.95-4.98-4.1-6.92-1.93-3.27-4.5-8.62-6.16-12.99-2.46-6.49-3.07-10.44-.36-11.74,2.51-1.2,6.1,1.48,10.56,6.53,3.68,4.17,7.06,9.17,8.25,12.31,1.22,3.21,4.96,13.16,5.85,15.62.46,1.26.61,1.67.84,2.35.28.79.52,1.52.74,2.21,1.68,5.36,1.94,8.49-.62,9.72-2.08,1-4.02-.39-6.31-3.32"/>
  <path class="cls-1" d="m145.33,123.75c-.25-1.81-1.47-4.57-2.32-6.53-.83-1.9-3.94-8.78-4.69-10.41-1.28-2.81-8.64-11.47-10.09-11.72-.61.34-.89.02-1.23.43l-.34.09c-.28.16.6.56.37.72-.04.85,5.58,10.2,6.67,11.86.99,1.5,5.01,7.6,6.33,9.51,1.52,2.2,3.79,5.59,5.3,6.03"/>
  <path class="cls-2" d="m144.27,123.71c-.13-.78-.46-1.81-.96-3.09-.16-.4-.33-.82-.52-1.27-.21-.49-.36-.83-.74-1.71-.36-.82-.67-1.81-1.21-3.74-.7-2.49-.9-3.14-1.19-3.77-.84-1.83-3.72-5.68-6.77-9.03-1.55-1.71-3.01-3.14-4.18-4.07-.59-.48-1.09-.82-1.47-1,0,0-.01,0-.02,0,0,.24.06.57.15.96.24,1.03.77,2.42,1.51,4.06,1.28,2.81,3.19,6.27,4.56,8.35.1.15.96,1.46,1.3,1.96.7,1.06,1.33,2.01,1.93,2.91l.04.06c1.44,2.17,2.5,3.75,3.05,4.55.02.03.54.78.7,1.01.28.41.52.75.76,1.08.41.57.78,1.06,1.13,1.49.97,1.21,1.74,1.88,1.98,2.05.02-.19,0-.46-.05-.81m1.13,2.67c-1.43.79-2.8-.27-4.68-2.62-.37-.47-.76-.99-1.19-1.58-.24-.34-.49-.69-.78-1.1-.16-.23-.68-.99-.7-1.02-.56-.81-1.63-2.4-3.08-4.59l-.04-.06c-.6-.9-1.23-1.86-1.93-2.91-.33-.51-1.2-1.82-1.3-1.97-4.45-6.76-8.23-15.08-5.61-16.52,1.62-.89,4.37,1.33,8.33,5.68,3.18,3.5,6.18,7.49,7.13,9.57.35.78.55,1.42,1.3,4.07.51,1.83.81,2.77,1.11,3.46.39.89.54,1.23.76,1.74.2.47.38.91.54,1.32,1.41,3.59,1.75,5.64.15,6.52"/>
  <path class="cls-1" d="m134.57,167.58c.25-1.67-.17-4.4-.47-6.33-.29-1.88-1.43-8.68-1.7-10.3-.47-2.78-5.21-12.06-6.53-12.58-.67.18-.86-.17-1.29.13h-.35c-.31.09.42.64.16.74-.27.75,2.61,10.29,3.21,12,.54,1.55,2.76,7.84,3.52,9.83.87,2.28,2.14,5.79,3.46,6.5"/>
  <path class="cls-2" d="m133.61,167.21c.08-.74.03-1.77-.12-3.06-.06-.53-.14-1.09-.24-1.75-.04-.28-.06-.4-.15-.99-.24-1.57-1.3-7.95-1.7-10.28-.67-3.92-5.58-12.37-6.79-12.27h.02s.03,0,0,.05c-.09.21-.15.57-.17,1.04-.04.96.09,2.31.36,3.93.47,2.78,1.38,6.26,2.13,8.41.27.77.48,1.35.72,2.03.38,1.06.73,2.07,1.07,3.01l.04.11c.78,2.2,1.37,3.82,1.68,4.64-.02-.04.32.86.42,1.12.17.44.32.82.47,1.18.52,1.29.99,2.26,1.43,2.93.36.54.6.74.63.77,0-.03.11-.28.17-.86m-6.69-9.12l-.04-.11c-.34-.95-.69-1.95-1.07-3.01-.24-.68-.44-1.26-.72-2.03-2.44-6.93-3.85-15.27-1.01-16,2.86-.74,8.42,8.81,9.29,13.86.4,2.34,1.46,8.73,1.7,10.31.09.6.11.72.15,1,.1.68.18,1.26.24,1.82.42,3.63.21,5.63-1.54,6.08h-.04c-1.78.42-2.9-1.27-4.37-4.88-.15-.37-.3-.76-.48-1.22-.1-.26-.44-1.17-.43-1.12-.32-.84-.91-2.47-1.7-4.68"/>
  <path class="cls-1" d="m146.01,123.7c.52-.99.82-2.76,1.03-4.03.21-1.22.9-5.68,1.06-6.73.27-1.82-.93-8.54-1.71-9.13-.49-.03-.54-.28-.9-.18l-.24-.06c-.23-.01.15.48-.05.48-.34.41-.44,6.92-.4,8.1.04,1.07.18,5.42.27,6.81.1,1.6.2,4.03.94,4.74"/>
  <path class="cls-2" d="m145.14,123.75s.17-.14.35-.54c.21-.47.4-1.14.58-2.01.1-.46.15-.81.29-1.63.18-1.09.87-5.48,1.05-6.73.39-2.59-1.14-8.91-2-8.96-.6-.03-1.4,5.26-1.28,8.77.09,2.68.2,5.71.26,6.79,0-.06.04.64.05.84.02.33.04.62.07.89.08.87.19,1.54.34,2.02.13.41.25.56.28.56m-.08,1.35c-1.25-.07-1.66-1.36-1.89-3.81-.02-.28-.05-.58-.07-.93-.01-.2-.06-.91-.05-.84-.07-1.1-.18-4.14-.27-6.83-.16-4.78.68-10.29,2.71-10.17,2.04.12,3.76,7.2,3.26,10.51-.19,1.25-.87,5.65-1.06,6.75-.14.85-.2,1.2-.3,1.68-.5,2.43-1.07,3.7-2.33,3.63"/>
  <path class="cls-1" d="m148.58,120.5c.5-1.2,1.83-2.92,2.76-4.14.91-1.19,4.25-5.47,5.05-6.48,1.37-1.74,7.85-6.7,8.85-6.68.34.31.58.12.73.45l.21.11c.16.14-.5.31-.38.44-.13.58-5.6,6.23-6.63,7.22-.93.89-4.73,4.53-5.96,5.66-1.42,1.3-3.55,3.32-4.62,3.43"/>
  <path class="cls-2" d="m149.27,120.71c.22-.5.61-1.14,1.15-1.91.16-.22.33-.46.51-.71.27-.37.46-.62.97-1.29.78-1.02,4-5.15,5.04-6.47,1.86-2.37,7.8-6.53,8.8-6.53-.04.18-.15.44-.31.75-.36.67-.97,1.56-1.77,2.58-1.38,1.75-3.29,3.87-4.59,5.11-2.28,2.18-4.98,4.76-5.95,5.65-.05.05-.48.45-.62.57-.25.23-.46.42-.67.6-.23.21-.44.39-.65.57-.71.6-1.29,1.03-1.74,1.29-.12.07-.23.12-.32.16.03-.1.07-.22.13-.36m2.85,0c.21-.18.44-.38.68-.59.21-.19.43-.38.68-.62.13-.12.57-.52.62-.57.98-.9,3.68-3.48,5.97-5.67,4.21-4.03,8.24-9.16,6.76-10.5-1.49-1.35-8.5,3.5-10.99,6.68-1.05,1.33-4.27,5.46-5.06,6.48-.52.68-.71.93-.99,1.31-.19.26-.37.5-.53.74-1.54,2.19-2.1,3.47-1.19,4.28.89.81,2.07.15,4.06-1.55"/>
  <path class="cls-1" d="m137.41,89.45c-.28-1.27-.19-3.43-.13-4.97.06-1.49.33-6.91.4-8.2.12-2.22,2.56-9.98,3.39-10.54.45.05.55-.24.85-.05l.23-.03c.21.02-.23.53-.05.58.23.55-.99,8.3-1.26,9.7-.25,1.26-1.26,6.41-1.61,8.05-.41,1.88-.99,4.75-1.81,5.46"/>
  <path class="cls-2" d="m138.07,89.09c-.1-.6-.14-1.43-.13-2.49,0-.51.02-1.01.05-1.73q0-.19.01-.37c.05-1.21.28-6.02.39-8.19.16-3,2.62-9.82,3.43-10.39.07.17.13.44.18.8.1.76.11,1.83.04,3.13-.11,2.22-.46,5.05-.81,6.81-.02.1-.24,1.21-.33,1.66-.18.89-.33,1.7-.49,2.47l-.03.14c-.35,1.78-.62,3.08-.76,3.75-.02.07-.16.76-.21.96-.08.38-.16.7-.23,1.01-.25,1.06-.49,1.87-.74,2.44-.09.21-.18.37-.25.49-.05-.13-.09-.3-.12-.51m3.72-7.88l.03-.14c.15-.77.31-1.58.49-2.47.09-.45.31-1.57.33-1.66,1.12-5.73,1.45-12.22-.53-12.46-2-.24-4.93,7.74-5.14,11.77-.11,2.17-.35,6.98-.4,8.21q0,.18-.01.37c-.03.73-.04,1.24-.05,1.77-.03,2.98.22,4.44,1.49,4.6,1.28.16,1.87-1.2,2.58-4.19.08-.32.15-.65.24-1.04.04-.21.19-.89.21-.97.15-.68.41-1.99.77-3.78"/>
  <path class="cls-1" d="m137.23,90.74c-.34-.96-1.27-2.37-1.93-3.37-.64-.97-3.01-4.48-3.58-5.31-.97-1.43-5.7-5.59-6.45-5.62-.27.22-.45.07-.57.32l-.16.08c-.12.11.36.26.27.37.08.46,4,5.13,4.75,5.95.67.74,3.41,3.76,4.3,4.7,1.02,1.08,2.57,2.76,3.38,2.89"/>
  <path class="cls-2" d="m135.87,89.28c-.11-.18-.23-.37-.36-.57-.19-.3-.32-.5-.68-1.03-.55-.83-2.83-4.21-3.58-5.3-1.32-1.93-5.67-5.46-6.4-5.5.02.15.09.36.21.63.25.55.68,1.27,1.25,2.11.98,1.44,2.35,3.18,3.29,4.21,1.51,1.67,3.59,3.95,4.29,4.69.22.23.35.37.45.48.18.19.34.35.49.51.18.18.34.35.5.5.85.83,1.51,1.25,1.52,1.28,0-.05-.31-.89-.99-2m1.7,2.85c-.72.6-1.58.05-3.01-1.34-.17-.16-.34-.33-.52-.52-.15-.16-.31-.33-.5-.52-.11-.11-.24-.25-.45-.48-.71-.75-2.79-3.03-4.31-4.71-3.02-3.33-5.88-7.53-4.72-8.51,1.2-1.02,6.33,3.09,8.11,5.7.75,1.1,3.03,4.48,3.59,5.32.36.54.49.74.68,1.05.13.21.26.41.37.6,1.09,1.8,1.47,2.82.76,3.42"/>
  <path class="cls-1" d="m126.54,61.06c-.5-1.2-1.83-2.92-2.76-4.14-.91-1.19-4.25-5.47-5.05-6.48-1.37-1.74-7.85-6.7-8.85-6.68-.34.3-.58.12-.73.45l-.21.11c-.16.14.5.31.38.44.13.58,5.59,6.23,6.63,7.21.93.89,4.73,4.53,5.96,5.66,1.42,1.3,3.55,3.32,4.63,3.43"/>
  <path class="cls-2" d="m125.85,61.27c-.22-.49-.61-1.14-1.15-1.91-.16-.22-.33-.46-.51-.71-.27-.37-.46-.62-.97-1.29-.74-.97-3.79-4.87-5.04-6.47-1.86-2.37-7.8-6.53-8.8-6.53.04.18.15.44.31.75.36.67.97,1.56,1.77,2.58,1.38,1.75,3.29,3.86,4.59,5.11.46.44.81.78,1.22,1.17.64.61,1.24,1.19,1.81,1.73l.03.03c1.36,1.3,2.36,2.25,2.88,2.72.05.04.48.44.62.57.25.23.46.42.67.6.23.21.45.39.65.57.71.6,1.29,1.03,1.74,1.29.12.07.23.12.32.16-.03-.1-.07-.22-.14-.36m-2.85,0c-.21-.18-.44-.38-.68-.59-.21-.19-.43-.38-.68-.62-.14-.12-.57-.53-.62-.57-.52-.48-1.53-1.44-2.9-2.74l-.03-.03c-.57-.54-1.18-1.12-1.82-1.73-.41-.39-.76-.72-1.22-1.17-4.22-4.04-8.24-9.16-6.76-10.5,1.49-1.35,8.5,3.5,10.99,6.68,1.26,1.6,4.31,5.5,5.06,6.49.52.68.71.93.99,1.31.19.26.37.5.53.74,1.54,2.19,2.1,3.47,1.19,4.28-.89.81-2.07.15-4.06-1.54"/>
  <path class="cls-1" d="m169.42,72.38c.19-.86.88-2.18,1.36-3.11.47-.9,2.2-4.17,2.62-4.95.72-1.33,4.47-5.43,5.15-5.54.26.17.41.02.54.22l.15.04c.12.08-.3.27-.2.34-.02.4-3.02,4.85-3.59,5.63-.52.71-2.63,3.6-3.33,4.51-.79,1.04-1.99,2.65-2.7,2.85"/>
  <path class="cls-2" d="m178.84,59.66c-.16.49-.47,1.16-.88,1.95-.71,1.34-1.75,2.98-2.47,3.98-.26.35-.45.62-.68.93-.36.49-.7.95-1.01,1.38l-.02.03c-.76,1.03-1.32,1.78-1.61,2.16-.18.23-.28.36-.36.48-.15.19-.27.35-.4.51-.16.21-.32.4-.46.57-.64.76-1.15,1.15-1.14,1.16-.01,0,.19-.79.7-1.87.08-.17.17-.35.26-.54.13-.26.22-.44.45-.88.39-.76,2.02-3.84,2.62-4.95,1.01-1.9,4.8-5.64,5.21-5.42-.07-.04-.08.16-.2.54m-7.16,12.6c.15-.18.31-.38.49-.6.12-.16.25-.33.4-.52.09-.12.19-.25.36-.48.29-.38.86-1.14,1.62-2.17l.02-.03c.32-.43.66-.89,1.01-1.38.23-.31.42-.58.68-.93,2.35-3.23,4.44-7.13,3.29-7.85-1.16-.72-5.29,3.36-6.59,5.79-.6,1.11-2.23,4.19-2.62,4.96-.23.45-.33.64-.46.9-.1.2-.19.38-.27.56-.81,1.72-1.05,2.66-.33,3.11.67.42,1.35-.11,2.4-1.35"/>
  <path class="cls-1" d="m126.08,59.14c-.26-.85-.32-2.32-.36-3.37-.05-1.01-.17-4.72-.2-5.59-.05-1.51,1.18-6.93,1.71-7.36.31.01.36-.19.58-.08l.16-.03c.14,0-.13.38,0,.4.18.36-.2,5.7-.31,6.67-.09.87-.49,4.43-.64,5.56-.17,1.3-.41,3.28-.92,3.81"/>
  <path class="cls-2" d="m127.92,43.44c.11.51.18,1.24.2,2.12.05,1.52-.03,3.46-.17,4.67-.17,1.57-.52,4.64-.64,5.55,0-.04-.07.51-.09.67-.04.27-.07.5-.1.71-.2,1.3-.49,2.15-.51,2.14h0s-.25-.87-.34-2.16c-.03-.4-.04-.71-.07-1.4-.04-.82-.14-3.91-.2-5.59-.06-2.15,1.36-7.28,1.82-7.28-.08,0,.01.17.1.56m.17,13.88c.04-.22.07-.46.1-.73.02-.16.09-.71.09-.67.12-.92.47-4,.64-5.57.44-3.94.3-8.39-1.06-8.44-1.37-.06-2.92,5.54-2.83,8.29.05,1.68.16,4.78.2,5.6.03.7.04,1.01.07,1.43.15,2.04.4,3.03,1.27,3.07.88.03,1.2-.91,1.51-2.97"/>
  <path class="cls-1" d="m123.92,56.37c-.62-.87-1.18-2.53-1.58-3.71-.39-1.14-1.77-5.31-2.09-6.3-.55-1.71-.73-8.31-.18-8.99.41-.1.41-.35.73-.3l.19-.09c.19-.04-.04.48.12.45.36.34,1.6,6.56,1.78,7.7.16,1.03.81,5.22.98,6.56.2,1.54.54,3.89.04,4.67"/>
  <path class="cls-2" d="m123.43,53.93c-.15-.42-.27-.74-.51-1.46-.35-1.03-1.71-5.14-2.08-6.29-.79-2.43-.62-8.75.04-8.91.45-.11,2.09,4.93,2.62,8.28-.02-.15.35,2.29.49,3.24l.02.14c.23,1.52.39,2.62.46,3.18,0,.02.07.56.1.72.05.4.09.72.12,1.03.15,1.51.06,2.48-.03,2.5-.1.02-.66-.88-1.23-2.41m2.49-.21c-.03-.32-.07-.65-.12-1.06-.02-.17-.09-.71-.1-.72-.07-.57-.24-1.67-.47-3.2l-.02-.14c-.14-.95-.52-3.39-.5-3.24-.72-4.63-2.38-9.71-4.12-9.29-1.76.42-1.94,7.4-.93,10.49.37,1.15,1.74,5.27,2.09,6.31.25.74.37,1.07.53,1.5.87,2.33,1.56,3.44,2.67,3.18,1.08-.26,1.21-1.48.97-3.83"/>
  <path class="cls-2" d="m136.35,163.13c16.7-25.48,32.78-42.57,48.74-54.2.67-.49.82-1.43.33-2.1-.49-.67-1.43-.82-2.1-.33-16.26,11.85-32.59,29.21-49.49,54.99-.46.69-.26,1.63.43,2.08.69.46,1.63.26,2.08-.43"/>
  <path class="cls-1" d="m166.2,122.03c.79-1.03,1.63-3.03,2.23-4.45.58-1.38,2.64-6.4,3.12-7.59.83-2.06,1.92-10.12,1.41-10.98-.43-.14-.4-.45-.75-.41l-.2-.13c-.2-.06-.01.58-.2.55-.44.4-2.63,7.94-2.98,9.32-.31,1.25-1.59,6.34-1.96,7.97-.43,1.88-1.12,4.72-.68,5.71"/>
  <path class="cls-2" d="m165.98,121.08c.31-.51.65-1.19,1.03-2.03.22-.5.38-.87.75-1.75.48-1.14,2.38-5.78,3.12-7.58,1.13-2.79,1.8-10,1.3-10.86-.14.13-.31.35-.5.65-.41.65-.87,1.61-1.36,2.82-.84,2.07-1.72,4.78-2.16,6.51-.29,1.16-.63,2.52-.96,3.84-.48,1.94-.83,3.39-1,4.12-.13.55-.19.84-.26,1.14-.08.37-.15.7-.22,1.01-.2,1.02-.32,1.81-.33,2.4,0,.19,0,.36.02.48.16-.16.35-.42.55-.76m-1.05,2.28c-1.2-.39-1.17-1.83-.6-4.69.07-.32.14-.66.22-1.04.07-.3.14-.6.26-1.15.17-.73.52-2.19,1-4.14.33-1.32.66-2.68.96-3.84,1.4-5.64,3.87-11.69,5.76-11.07,1.91.62,1.18,9.1-.33,12.83-.74,1.81-2.64,6.46-3.13,7.6-.38.89-.54,1.27-.77,1.78-.4.89-.76,1.61-1.11,2.18-.74,1.2-1.41,1.82-2.27,1.54"/>
  <path class="cls-1" d="m164.57,123.82c.74-.75,2.27-1.64,3.35-2.27,1.05-.62,4.88-2.82,5.79-3.34,1.57-.89,7.96-2.64,8.71-2.33.16.33.4.27.41.56l.12.14c.07.15-.47.08-.42.22-.28.4-6.12,2.98-7.2,3.41-.98.39-4.95,1.96-6.22,2.44-1.47.55-3.69,1.41-4.54,1.17"/>
  <path class="cls-2" d="m165.96,123.45c.28-.2.6-.41.97-.63.36-.23.6-.37,1.29-.77.93-.55,4.71-2.72,5.79-3.33,2.12-1.21,7.87-2.53,8.63-2.23-.09.12-.24.28-.47.47-.48.4-1.21.88-2.13,1.4-1.57.9-3.67,1.9-5.02,2.44-2.48.99-5.22,2.06-6.21,2.44-.51.19-.79.3-1.07.4-.24.09-.46.17-.67.24-1.31.45-2.26.6-2.36.61.06-.04.49-.49,1.26-1.03m1.48,1.52c.22-.07.44-.15.69-.24.29-.1.57-.21,1.08-.4.57-.21,1.71-.66,3.24-1.26,1.04-.41,2.18-.86,3-1.19,4.42-1.76,9.01-4.38,8.31-5.84-.71-1.47-7.47.04-10.32,1.67-1.08.61-4.86,2.79-5.8,3.34-.69.41-.94.56-1.31.79-.38.24-.72.46-1.02.67-1.4.97-2.04,1.68-1.65,2.49.44.91,1.58.74,3.79-.01"/>
  <path class="cls-1" d="m180.65,110.81c.96-.87,2.89-1.88,4.26-2.59,1.33-.69,6.18-3.16,7.32-3.74,1.99-1,9.96-2.76,10.86-2.32.18.42.48.36.47.71l.14.18c.08.19-.58.06-.53.24-.36.47-7.71,3.28-9.07,3.74-1.22.42-6.2,2.11-7.8,2.62-1.84.58-4.62,1.51-5.65,1.15"/>
  <path class="cls-2" d="m180.96,111.5c.24-.26.65-.57,1.2-.93.4-.26.88-.54,1.43-.84.47-.26.8-.44,1.65-.88,1.09-.57,5.43-2.78,7.32-3.74,2.68-1.36,9.82-2.62,10.74-2.21-.12.15-.32.33-.6.55-.61.46-1.54,1-2.7,1.59-1.99,1.01-4.62,2.11-6.33,2.69-1.04.36-2.46.83-3.76,1.27-1.9.64-3.32,1.11-4.03,1.33-.61.19-.94.3-1.27.4-.32.1-.61.18-.88.26-.99.28-1.77.46-2.35.52-.19.02-.35.02-.47.02.01-.02.03-.04.05-.05m3.16.89c.29-.08.58-.17.91-.27.34-.1.67-.21,1.28-.4.72-.23,2.14-.7,4.05-1.34,1.3-.44,2.72-.92,3.76-1.27,5.54-1.89,11.35-4.83,10.58-6.66-.79-1.85-9.19-.41-12.8,1.41-1.89.96-6.24,3.18-7.34,3.75-.86.45-1.2.63-1.68.89-.58.32-1.08.61-1.51.89-1.6,1.03-2.35,1.84-1.95,2.8.49,1.16,1.91,1.02,4.69.21"/>
  <path class="cls-1" d="m181.88,109.26c.59-.65,1.28-1.97,1.76-2.9.47-.9,2.15-4.2,2.55-4.99.68-1.35,1.88-6.77,1.58-7.38-.29-.12-.25-.32-.49-.32l-.13-.1c-.13-.05-.04.4-.16.36-.32.25-2.23,5.25-2.55,6.17-.28.83-1.43,4.22-1.78,5.31-.4,1.25-1.02,3.15-.78,3.84"/>
  <path class="cls-2" d="m182.04,108.24c.18-.28.37-.6.58-.97.18-.32.29-.53.6-1.12.43-.83,2.1-4.1,2.54-4.98.97-1.92,1.87-7.17,1.45-7.37.07.03-.09.15-.33.47-.31.42-.68,1.05-1.09,1.84-.69,1.36-1.44,3.15-1.83,4.31-.66,1.95-1.51,4.44-1.78,5.3q-.06.21-.13.42c-.05.17-.1.31-.14.45-.07.21-.12.41-.18.59-.32,1.13-.41,1.94-.41,2.02.02-.05.34-.36.72-.95m-1.09,1.86h0c-.79-.33-.7-1.3-.15-3.19.05-.19.11-.39.18-.61.04-.14.09-.28.14-.46q.07-.22.13-.42c.27-.86,1.12-3.36,1.78-5.32,1.27-3.75,3.29-7.73,4.54-7.21,1.26.53.29,6.25-.95,8.7-.44.88-2.12,4.16-2.55,5-.31.6-.43.82-.61,1.14-.22.4-.42.74-.61,1.03-.7,1.08-1.25,1.6-1.91,1.33"/>
  <path class="cls-1" d="m185.01,107.67c.93-.53,2.15-1.79,3.01-2.69.84-.87,3.85-4.07,4.56-4.83,1.23-1.31,4.19-7.22,3.98-8.07-.33-.26-.22-.48-.53-.58l-.13-.17c-.15-.12-.16.45-.3.36-.48.16-4.24,5.27-4.88,6.23-.58.87-2.95,4.39-3.68,5.53-.83,1.31-2.14,3.29-2.02,4.21"/>
  <path class="cls-2" d="m184.35,107.32h0s.71-.33,1.62-1.17c.21-.19.43-.4.66-.63.28-.27.46-.46.95-.97.73-.75,3.65-3.85,4.56-4.82,1.75-1.87,4.28-7.67,3.74-8.09-.36-.29-3.99,3.58-5.88,6.4-1.41,2.09-3.1,4.63-3.67,5.52l-.33.52c-.14.21-.25.39-.35.56-.14.22-.26.43-.38.62-.7,1.2-.97,2.02-.91,2.06m-.77.97c-.84-.67-.48-1.78.61-3.65.12-.21.25-.42.39-.65.11-.17.22-.35.36-.57l.33-.52c.58-.9,2.27-3.44,3.69-5.54,2.61-3.89,6.27-7.79,7.67-6.68,1.42,1.12-1.38,7.52-3.61,9.9-.91.98-3.84,4.08-4.57,4.84-.5.52-.69.71-.97.99-.25.25-.48.46-.7.67-1.44,1.31-2.41,1.86-3.21,1.22"/>
  <path class="cls-1" d="m167.51,73.85c.33-1.11.31-3.01.29-4.35-.01-1.31-.12-6.05-.15-7.18-.05-1.94-2.34-8.73-3.18-9.21-.47.05-.56-.2-.88-.04l-.24-.02c-.22.02.23.47.04.51-.25.48.76,7.27,1,8.49.22,1.1,1.1,5.61,1.41,7.04.37,1.64.88,4.15,1.71,4.77"/>
  <path class="cls-2" d="m166.7,74.08c.12-.01.37-1.06.41-2.74.01-.49.01-.93,0-1.71v-.13c-.01-1.11-.11-5.63-.15-7.17-.07-2.76-2.62-9.12-3.4-9.03-.53.06-.39,5.75.32,9.37.53,2.68,1.17,5.91,1.42,7.02,0-.01.14.63.18.83.07.33.14.61.21.88.23.92.45,1.62.68,2.11.2.42.34.56.33.56m.15,1.35h0c-1.25.14-1.84-1.11-2.48-3.7-.07-.28-.14-.57-.22-.91-.04-.2-.19-.85-.18-.83-.25-1.13-.89-4.36-1.42-7.06-.97-4.98-1.12-10.77.87-10.99,2-.22,4.82,6.82,4.91,10.35.04,1.55.14,6.07.15,7.19v.13c0,.8,0,1.24,0,1.75-.07,2.57-.39,3.93-1.63,4.06"/>
  <path class="cls-1" d="m173.02,26.3c-.1-1.49.48-3.86.88-5.54.4-1.63,1.89-7.54,2.26-8.94.62-2.42,5.48-10.25,6.68-10.61.58.2.78-.09,1.13.21l.31.04c.27.09-.42.52-.19.62.18.68-3.05,8.88-3.71,10.34-.59,1.32-3.01,6.71-3.82,8.4-.93,1.95-2.31,4.95-3.53,5.47"/>
  <path class="cls-2" d="m173.89,26.06c-.02-.65.1-1.54.32-2.65.08-.41.18-.85.29-1.34.07-.31.11-.46.26-1.1.33-1.36,1.72-6.88,2.25-8.93.89-3.44,5.94-10.65,6.91-10.31.66.23-1.15,7.32-3.09,11.64-1.51,3.37-3.18,7.06-3.81,8.38,0,0-.34.71-.44.93-.18.37-.33.69-.49.99-.58,1.14-1.07,1.98-1.52,2.54-.36.45-.58.6-.6.61,0-.02-.08-.24-.09-.75m2.06,1.23c.54-.68,1.09-1.6,1.71-2.84.16-.31.32-.64.5-1.02.11-.22.45-.94.45-.93.36-.77,1.07-2.3,2-4.36.64-1.41,1.33-2.95,1.83-4.06,2.65-5.92,4.51-13.17,2.06-14.02-2.46-.86-8.06,7.14-9.2,11.53-.53,2.06-1.93,7.59-2.26,8.96-.16.65-.19.8-.27,1.12-.12.51-.22.96-.3,1.4-.62,3.12-.58,4.89.92,5.41.93.32,1.75-.18,2.55-1.18"/>
  <path class="cls-1" d="m176.06,29.09c-.63-1.47-2.34-3.46-3.55-4.88-1.17-1.37-5.5-6.31-6.52-7.48-1.78-2.01-10.25-7.16-11.58-6.92-.46.48-.78.29-.98.75l-.28.18c-.21.22.66.29.49.51.15.74,7.26,7.02,8.6,8.11,1.21.97,6.15,4.96,7.76,6.19,1.85,1.42,4.63,3.62,6.06,3.53"/>
  <path class="cls-2" d="m153.67,10.79s.02,0,.03.05c.04.21.17.53.38.92.45.8,1.22,1.82,2.26,2.99,1.77,2.01,4.25,4.38,5.92,5.74q.27.22.65.52c.43.35.63.51.94.75.84.68,1.62,1.3,2.35,1.89l.06.04c1.77,1.42,3.08,2.45,3.75,2.97.07.05.59.45.75.58.3.23.56.43.81.61.35.26.68.5.99.71,1.64,1.14,2.76,1.58,2.85,1.48.09-.09-.38-1.17-1.54-2.71-.25-.32-.52-.67-.82-1.04-.35-.43-.59-.71-1.24-1.48-.94-1.11-4.65-5.35-6.51-7.47-2.5-2.84-10.72-7.23-11.63-6.54l.02-.03Zm23.1,20.57c-1.12,1.16-2.76.52-5.3-1.24-.33-.23-.67-.47-1.04-.75-.26-.19-.52-.39-.83-.63-.16-.12-.69-.53-.75-.58-.68-.52-2-1.56-3.78-2.99l-.06-.04c-.74-.59-1.52-1.22-2.36-1.89-.3-.25-.51-.41-.94-.75q-.38-.31-.65-.53c-5.44-4.39-10.75-10.42-8.82-12.43,1.94-2.02,11.21,2.92,14.44,6.58,1.87,2.13,5.58,6.37,6.53,7.49.66.78.91,1.07,1.27,1.51.32.39.6.75.87,1.1,1.81,2.4,2.51,4,1.4,5.16"/>
  <path class="cls-1" d="m173.99,26.13c.07-1.1-.35-2.85-.65-4.09-.29-1.2-1.4-5.57-1.66-6.61-.46-1.79-4.04-7.57-4.93-7.84-.43.15-.57-.06-.83.16l-.23.02c-.2.07.31.39.15.46-.14.5,2.26,6.56,2.74,7.64.44.98,2.22,4.95,2.82,6.2.69,1.44,1.71,3.65,2.61,4.04"/>
  <path class="cls-2" d="m173.29,26.51c.11-.04.13-1-.17-2.51-.06-.3-.13-.62-.21-.99-.05-.23-.07-.31-.19-.82-.25-1.04-1.33-5.29-1.66-6.6-.66-2.54-4.39-7.87-5.11-7.62-.49.17.86,5.41,2.29,8.6.95,2.12,2.34,5.2,2.81,6.19,0,.02.25.53.33.69.13.28.25.51.36.73.42.83.78,1.45,1.11,1.87.28.36.45.46.45.46m.43,1.23c-.69.24-1.3-.13-1.9-.88-.4-.5-.8-1.18-1.25-2.09-.12-.23-.24-.47-.37-.75-.08-.16-.32-.67-.33-.69-.48-1-1.88-4.09-2.83-6.22-1.96-4.38-3.33-9.73-1.52-10.36,1.82-.63,5.96,5.27,6.8,8.52.34,1.31,1.41,5.56,1.67,6.62.12.52.14.6.2.83.09.38.16.71.22,1.03.46,2.31.43,3.61-.68,4"/>
  <path class="cls-1" d="m172.57,19.38c-.18-.86-.12-2.34-.07-3.39.04-1.01.25-4.71.3-5.59.09-1.51,1.78-6.8,2.35-7.18.31.04.38-.16.58-.03l.16-.02c.14.02-.16.36-.04.39.15.38-.71,5.66-.9,6.61-.17.86-.88,4.37-1.13,5.48-.29,1.28-.69,3.24-1.25,3.71"/>
  <path class="cls-2" d="m175.79,3.91c.06.52.07,1.25.01,2.13-.09,1.51-.34,3.44-.58,4.64-.09.43-.15.77-.23,1.13-.12.6-.23,1.15-.34,1.68l-.02.1c-.25,1.21-.43,2.1-.54,2.56,0,.03-.11.51-.15.65-.06.26-.11.48-.16.69-.32,1.29-.68,2.12-.7,2.11-.02,0-.17-.87-.15-2.15,0-.34.02-.69.04-1.16v-.27c.05-.82.22-3.95.31-5.58.13-2.14,1.99-7.13,2.46-7.1-.08,0,0,.17.05.57m-.2,9.88l.02-.1c.11-.53.22-1.09.34-1.68.07-.37.14-.71.23-1.13.79-3.9,1.04-8.33-.31-8.5-1.36-.17-3.39,5.26-3.55,8.01-.09,1.64-.26,4.77-.3,5.6v.27c-.03.49-.05.84-.05,1.19-.03,2.02.14,3.02,1,3.13.87.11,1.27-.81,1.77-2.85.05-.22.11-.44.17-.71.03-.15.14-.63.15-.65.1-.46.29-1.36.54-2.58"/>
  <path class="cls-1" d="m98.93,195.74c-.14-1.43-1.03-3.65-1.65-5.22-.6-1.53-2.86-7.04-3.4-8.35-.93-2.25-6.49-9.28-7.62-9.51-.49.25-.71,0-.98.31l-.27.07c-.22.11.46.45.27.58-.06.67,4.11,8.2,4.92,9.55.73,1.2,3.73,6.13,4.72,7.67,1.14,1.78,2.83,4.51,4.01,4.9"/>
  <path class="cls-2" d="m98.13,196.37s-.01-.04,0-.13c.05-.64-.25-1.83-.85-3.46-.21-.56-.36-.96-.76-1.96-.26-.65-.47-1.43-.83-2.92l-.03-.13c-.45-1.86-.61-2.44-.81-2.94-1.31-3.16-8.25-11.4-9.39-11.61-.02.2,0,.51.08.91.16.82.54,1.93,1.08,3.25.93,2.25,2.34,5.03,3.36,6.72.36.58.63,1.03.94,1.54.49.8.95,1.56,1.4,2.28l.08.13c1.08,1.76,1.88,3.05,2.29,3.7h0c-.05-.08.46.72.6.93.27.41.5.76.72,1.09,1.09,1.61,2,2.53,2.16,2.59h-.02Zm-7.15-7.46l-.08-.13c-.44-.72-.91-1.48-1.4-2.29-.31-.51-.58-.95-.94-1.54-3.31-5.45-6.06-12.12-3.96-13.19,1.3-.66,3.41,1.16,6.41,4.7,2.41,2.85,4.66,6.07,5.35,7.74.25.62.41,1.2.89,3.18l.03.13c.34,1.41.55,2.16.77,2.7.4,1.01.56,1.42.77,2,.68,1.86,1.02,3.19.94,4.15-.05.66-.31,1.18-.85,1.46-1.31.67-2.49-.49-4.28-3.13-.23-.34-.47-.7-.74-1.12-.14-.22-.65-1.01-.6-.94-.42-.66-1.22-1.96-2.31-3.72"/>
  <path class="cls-1" d="m97.62,199c-.56-1.74-.65-4.76-.72-6.9-.06-2.08-.22-9.63-.25-11.43-.06-3.09,2.85-14.09,4.05-14.93.69.04.81-.37,1.29-.14l.35-.07c.32.02-.3.77-.02.81.41.74-.63,11.62-.9,13.59-.24,1.78-1.24,9.02-1.61,11.32-.43,2.64-1.01,6.69-2.18,7.74"/>
  <path class="cls-2" d="m98.56,198.6c-.21-.68-.37-1.67-.47-2.93-.04-.43-.07-.88-.09-1.38-.03-.65-.05-1.1-.09-2.25-.03-.85-.17-1.87-.47-3.62q-.03-.15-.05-.3c-.43-2.49-.54-3.2-.55-3.9-.04-2.02.91-6.74,2.22-11.08.67-2.21,1.36-4.13,2.01-5.48.33-.69.63-1.21.89-1.54,0,0,0,0,.01-.01.1.22.19.54.28.93.22,1.03.35,2.52.38,4.32.06,3.1-.18,7.04-.52,9.51-.57,4.17-1.32,9.49-1.61,11.29-.02.11-.14.88-.18,1.11-.07.45-.13.82-.2,1.18-.08.45-.16.87-.24,1.26-.26,1.26-.53,2.23-.82,2.9-.1.24-.2.42-.29.55-.07-.13-.15-.32-.23-.56m3.38-2.47c.08-.41.16-.84.25-1.31.06-.37.13-.76.2-1.21.04-.24.16-1.01.18-1.11.29-1.82,1.04-7.15,1.61-11.34,1.1-8,.93-17.17-2.05-17.34-1.84-.1-3.36,3.09-5.06,8.72-1.36,4.53-2.35,9.43-2.31,11.71.01.85.12,1.56.58,4.22q.03.15.05.29c.29,1.66.42,2.62.44,3.34.04,1.17.05,1.63.09,2.29.03.51.06.99.1,1.44.3,3.56.88,5.44,2.65,5.54,1.77.1,2.55-1.69,3.28-5.24"/>
  <path class="cls-2" d="m111.82,218.15c-20.14-30.03-30.22-54.98-36.74-82.94-.08-.33-.55-2.4-.71-3.09-.33-1.4-.63-2.66-.97-3.95-.86-3.38-1.82-6.65-2.95-10.01-4.51-13.34-11.1-25.79-20.64-37.03-3.67-4.32-7.33-7.97-11.06-11.23-.77-.68-1.95-.6-2.63.17-.68.77-.6,1.95.17,2.63,3.6,3.15,7.14,6.67,10.67,10.84,9.2,10.86,15.58,22.89,19.95,35.82,1.1,3.26,2.03,6.45,2.88,9.74.32,1.26.62,2.5.95,3.88.16.68.63,2.75.71,3.09,6.61,28.37,16.86,53.74,37.27,84.17.57.85,1.73,1.08,2.58.51.85-.57,1.08-1.73.51-2.59"/>
  <path class="cls-2" d="m82.49,164.57c-22.84-19.27-42.69-30.94-60.86-37.57-.74-.27-1.57.11-1.84.86-.27.74.11,1.57.86,1.84,17.85,6.51,37.41,18.01,60,37.07.6.51,1.51.43,2.02-.17.51-.6.44-1.51-.17-2.02"/>
  <path class="cls-1" d="m67.99,117.18c-.33-1.88-.06-5.07.12-7.32.18-2.19.91-10.16,1.09-12.05.31-3.26,4.33-14.57,5.56-15.35.65.11.81-.31,1.24-.03l.33-.03c.3.05-.37.78-.11.85.29.82-1.95,12.17-2.44,14.22-.44,1.85-2.22,9.38-2.84,11.77-.71,2.74-1.74,6.94-2.96,7.94"/>
  <path class="cls-2" d="m69.08,117.4c-.04-.12-.07-.27-.1-.44-.12-.74-.16-1.78-.12-3.09.01-.44.04-.91.07-1.41.04-.73.08-1.22.19-2.54.16-1.91.86-9.65,1.09-12.04.2-2.15,1.36-6.14,2.79-9.63.72-1.77,1.46-3.27,2.11-4.3.28-.44.54-.78.76-1.01.06.25.11.58.15.99.09,1.12.04,2.7-.14,4.61-.31,3.27-.99,7.41-1.6,9.99-.47,1.98-.89,3.76-1.35,5.68-.69,2.88-1.21,5.01-1.48,6.07-.02.09-.23.88-.29,1.13-.12.45-.22.83-.32,1.2-.11.4-.22.78-.32,1.14-.4,1.38-.78,2.43-1.15,3.16-.1.2-.2.37-.29.51m3.45-3.08c.11-.37.22-.76.33-1.18.1-.38.2-.76.32-1.22.06-.25.27-1.04.29-1.12.28-1.07.8-3.21,1.49-6.1.46-1.92.88-3.7,1.35-5.68,1.98-8.38,2.88-17.91,0-18.38-1.76-.28-3.39,2.27-5.25,6.82-1.5,3.67-2.72,7.84-2.94,10.23-.23,2.39-.93,10.15-1.09,12.06-.11,1.34-.15,1.84-.19,2.58-.03.52-.06,1.01-.07,1.47-.12,3.72.21,5.66,1.92,5.93,1.77.28,2.69-1.52,3.82-5.41"/>
  <path class="cls-1" d="m68.99,118.47c-1.42-1.3-4.27-2.63-6.28-3.58-1.96-.92-9.12-4.18-10.82-4.95-2.93-1.32-14.73-2.76-16.07-1.84-.26.75-.71.71-.7,1.31l-.21.34c-.12.35.86,0,.79.31.54.73,11.4,4.09,13.4,4.61,1.81.47,9.18,2.38,11.54,2.94,2.72.63,6.84,1.67,8.36.86"/>
  <path class="cls-2" d="m35.49,109.59s.02-.02.06.03c.15.22.44.5.88.82.88.65,2.24,1.39,3.94,2.16,2.93,1.32,6.8,2.69,9.31,3.34,1.53.4,3.63.94,5.56,1.44,2.81.72,4.91,1.25,5.95,1.49.03,0,.95.22,1.24.29.5.11.92.21,1.33.3.83.18,1.54.31,2.19.4,1.77.25,2.78.12,2.81.04,0,.02-.14-.22-.64-.65-.61-.53-1.56-1.12-2.81-1.78-.42-.22-.88-.45-1.38-.7-.48-.23-.78-.38-1.68-.8-1.61-.76-8.11-3.72-10.81-4.94-4.13-1.86-15.25-2.6-15.94-1.4v-.03Zm30.13,12.51c-.71-.1-1.47-.24-2.34-.43-.42-.09-.85-.19-1.36-.31-.29-.07-1.22-.28-1.24-.29-1.06-.25-3.18-.78-6-1.5-1.93-.5-4.03-1.04-5.56-1.44-8.1-2.1-16.9-6.08-15.77-9.23.67-1.87,3.83-2.33,8.64-2.02,3.97.26,8.2,1.08,10.39,2.07,2.71,1.22,9.22,4.19,10.84,4.96.91.43,1.22.58,1.71.81.52.25,1,.49,1.44.73,3.52,1.85,5.21,3.31,4.53,5.2-.58,1.63-2.37,1.86-5.27,1.45"/>
  <path class="cls-1" d="m105.08,208.86c-.33-3.32.45-8.9.99-12.85.53-3.84.4-12.3.89-15.61.86-5.7,10.89-30.78,13-32.07,1.06.23,1.37-.5,2.04.03l.56-.04c.49.1-.69,1.34-.28,1.49.4,1.46-4.52,21.25-5.54,24.81-.92,3.22-4.66,16.33-5.94,20.48-1.46,4.77-3.6,12.08-5.72,13.76"/>
  <path class="cls-2" d="m106.54,209.36c-.3-.63-.56-1.57-.73-2.74-.36-2.39-.35-5.46.03-8.21.22-1.57.4-3.48.75-7.6v-.06c.42-4.91.58-6.59.79-7.96.56-3.71,3.73-12.42,7.44-20.53,1.86-4.07,3.69-7.61,5.22-10.08.62-.99,1.17-1.79,1.65-2.38.04.35.06.76.07,1.22.03,1.98-.23,4.76-.73,8.11-.86,5.72-2.43,12.96-3.71,17.45-.89,3.12-1.86,6.52-2.83,9.88-1.44,5.01-2.53,8.73-3.09,10.56-.07.23-.47,1.55-.59,1.94-.24.79-.45,1.44-.65,2.08-.21.65-.41,1.26-.6,1.83-.83,2.45-1.57,4.32-2.27,5.6-.24.43-.46.78-.65,1.04-.03-.05-.06-.1-.08-.16m6.53-5.28c.2-.6.4-1.22.62-1.89.21-.65.41-1.32.66-2.11.12-.4.53-1.72.6-1.95.57-1.86,1.66-5.59,3.11-10.62.97-3.37,1.95-6.77,2.84-9.89,1.33-4.64,2.93-12.04,3.82-17.92,1.35-9.05,1.29-13.69-1.96-14.39-3.07-.66-6.5,4.88-11.32,15.41-3.85,8.41-7.11,17.38-7.74,21.53-.23,1.5-.38,3.17-.81,8.2v.06c-.35,4.04-.53,5.93-.73,7.4-1.03,7.42.08,14.8,3.83,15.6,3.06.65,4.72-2.42,7.09-9.43"/>
  <path class="cls-1" d="m105.14,210.03c-1.89-1.92-5.78-3.98-8.53-5.45-2.67-1.43-12.45-6.49-14.77-7.68-4-2.06-20.39-4.9-22.32-3.71-.43,1.03-1.04.94-1.07,1.78l-.32.46c-.19.47,1.2.06,1.08.49.69,1.06,15.64,6.52,18.4,7.39,2.49.79,12.65,3.98,15.92,4.92,3.75,1.08,9.44,2.81,11.62,1.8"/>
  <path class="cls-2" d="m104.66,212s-.02,0-.05-.06c-.12-.25-.39-.58-.8-.97-.83-.79-2.13-1.69-3.85-2.71-.59-.35-1.23-.71-1.94-1.1-.61-.34-.99-.54-2.17-1.17-2.29-1.22-11.71-6.11-14.75-7.67-2.59-1.33-8.11-2.69-13.29-3.3-4.79-.56-8.46-.24-8.88.22v-.06s.04,0,.09.06c.19.31.59.73,1.16,1.2,1.19.97,3.03,2.1,5.36,3.3,4,2.06,9.31,4.24,12.77,5.33,2.15.68,5.01,1.58,7.66,2.4,3.88,1.2,6.78,2.09,8.21,2.5.01,0,1.33.39,1.74.5.69.2,1.29.36,1.86.51,1.34.36,2.48.62,3.48.8,2.07.36,3.26.26,3.41.17v.04Zm-3.95,2.92c-1.11-.19-2.33-.48-3.75-.86-.59-.16-1.2-.33-1.91-.53-.41-.12-1.74-.5-1.74-.5-1.47-.42-4.38-1.31-8.28-2.52-2.66-.83-5.52-1.73-7.68-2.4-3.62-1.14-9.11-3.39-13.27-5.53-6.18-3.18-9.27-5.71-8.12-8.49,1.06-2.57,5.52-2.99,12.22-2.21,5.53.64,11.38,2.09,14.37,3.62,3.06,1.57,12.49,6.46,14.8,7.7,1.19.63,1.57.84,2.2,1.18.74.41,1.4.78,2.03,1.15,4.84,2.86,7.12,5.02,6.04,7.63-.88,2.14-3.24,2.4-6.91,1.76"/>
  <path class="cls-1" d="m81.36,164.27c-1.39-1.18-4.15-2.42-6.1-3.29-1.89-.86-8.81-3.89-10.45-4.6-2.83-1.23-14.1-2.74-15.34-1.95-.23.66-.65.61-.62,1.14l-.19.3c-.1.3.82.01.76.29.53.66,10.97,3.85,12.9,4.35,1.74.45,8.8,2.3,11.07,2.83,2.6.61,6.56,1.61,7.98.93"/>
  <path class="cls-2" d="m80.56,165.01c-.62-.49-1.55-1.04-2.78-1.65-.38-.19-.79-.39-1.24-.6-.49-.23-.82-.38-1.7-.78-.82-.37-1.71-.89-3.4-1.96-2.19-1.38-2.77-1.73-3.41-2.01-1.85-.8-6.57-1.73-11.08-2.18-2.3-.23-4.34-.31-5.83-.23-.76.04-1.36.12-1.76.24h-.02c.17.18.42.39.75.62.87.6,2.19,1.29,3.84,2.01,2.83,1.23,6.57,2.52,8.98,3.15.17.04,1.69.44,2.28.59,1.22.32,2.33.6,3.38.87l.07.02c2.53.65,4.37,1.12,5.31,1.34.04,0,.93.22,1.2.28.48.11.89.21,1.28.29.68.15,1.28.27,1.84.36,1.53.25,2.55.23,2.84.2-.11-.15-.3-.35-.58-.56m-2.6,2.42c-.59-.1-1.23-.22-1.94-.38-.41-.09-.82-.18-1.32-.3-.28-.07-1.16-.28-1.2-.29-.96-.23-2.81-.7-5.35-1.35l-.07-.02c-1.05-.27-2.16-.56-3.38-.88-.59-.15-2.11-.55-2.28-.59-7.83-2.05-16.21-5.7-15.22-8.52.61-1.74,4.14-1.93,9.99-1.35,4.71.47,9.6,1.43,11.7,2.34.78.34,1.36.69,3.69,2.16,1.6,1.01,2.45,1.51,3.14,1.83.88.4,1.23.56,1.73.79.46.22.89.42,1.29.62,3.45,1.73,5.07,3.02,4.47,4.75-.53,1.54-2.26,1.67-5.23,1.19"/>
  <path class="cls-1" d="m102.7,204.05c-.93-1.41-3.07-3.15-4.58-4.39-1.47-1.2-6.87-5.5-8.15-6.51-2.21-1.75-11.94-5.48-13.28-4.98-.38.58-.75.45-.87.97l-.25.25c-.18.27.73.18.6.43.3.74,8.83,5.9,10.42,6.77,1.44.79,7.3,3.98,9.19,4.95,2.18,1.11,5.47,2.87,6.93,2.51"/>
  <path class="cls-2" d="m101.74,204.43c-.44-.61-1.16-1.34-2.14-2.2-.4-.36-.83-.72-1.35-1.15-.21-.18-.31-.26-.77-.63-1.23-1-6.28-5.04-8.14-6.5-3.12-2.46-12.42-5.46-13.26-4.58v-.02s.03-.01.05.04c.08.22.27.52.57.88.61.74,1.61,1.66,2.89,2.68,2.21,1.75,5.21,3.73,7.21,4.82.72.39,1.26.69,1.89,1.03.99.54,1.93,1.05,2.81,1.52l.11.06c2.06,1.11,3.58,1.92,4.36,2.33-.04-.02.81.42,1.06.55.42.22.79.4,1.14.57,1.26.61,2.25,1.02,3.03,1.22.63.16.94.15.99.15-.02-.03-.11-.29-.45-.75m-11.07-2.3l-.11-.06c-.88-.48-1.82-.99-2.81-1.53-.63-.34-1.18-.64-1.89-1.03-6.45-3.52-13.08-8.77-11.45-11.22,1.63-2.46,12.15.91,16.18,4.09,1.86,1.47,6.93,5.51,8.16,6.52.47.38.56.46.78.64.53.44.98.82,1.4,1.19,2.74,2.42,3.92,4.04,2.93,5.55l-.03.04c-1.04,1.49-3.01.99-6.52-.72-.36-.18-.74-.36-1.17-.59-.25-.13-1.11-.57-1.07-.55-.8-.41-2.32-1.23-4.39-2.34"/>
  <path class="cls-1" d="m81.83,163.78c-.27-1.08-1.24-2.6-1.93-3.68-.67-1.05-3.13-4.82-3.72-5.71-1.02-1.54-6.4-5.73-7.38-5.65-.38.31-.59.16-.79.47l-.22.11c-.18.14.43.25.29.39.02.53,4.3,5.44,5.12,6.29.74.77,3.77,3.91,4.75,4.88,1.14,1.12,2.84,2.86,3.87,2.89"/>
  <path class="cls-2" d="m81.23,164.4s.03-.21-.1-.64c-.15-.49-.46-1.12-.91-1.88-.24-.41-.42-.7-.88-1.41-.59-.93-3.02-4.65-3.72-5.7-1.44-2.19-6.81-5.86-7.48-5.32-.47.37,2.48,4.85,4.92,7.38,1.86,1.93,3.97,4.11,4.74,4.87-.04-.04.46.45.6.59.24.24.45.43.65.62.64.6,1.17,1.02,1.61,1.27.37.22.56.25.58.23m.85,1.06c-.98.78-2.15.1-3.95-1.57-.21-.19-.42-.4-.67-.64-.15-.14-.65-.64-.6-.59-.79-.77-2.9-2.95-4.77-4.9-3.31-3.44-6.38-8.1-4.79-9.37,1.6-1.28,7.61,2.84,9.45,5.63.7,1.05,3.13,4.78,3.73,5.72.46.72.65,1.03.9,1.45,1.26,2.14,1.68,3.47.7,4.26"/>
  <path class="cls-1" d="m81.61,159.68c-.43-1.22-.6-3.39-.72-4.92-.12-1.49-.5-6.91-.58-8.2-.15-2.21,1.35-10.23,2.1-10.89.46,0,.52-.3.84-.15l.22-.06c.21,0-.17.56.02.58.29.52,0,8.37-.1,9.8-.1,1.29-.49,6.53-.64,8.2-.18,1.91-.42,4.84-1.14,5.64"/>
  <path class="cls-2" d="m82.21,159.36c-.17-.51-.31-1.25-.42-2.19-.03-.27-.07-.56-.1-.87-.04-.46-.07-.77-.14-1.61-.1-1.28-.47-6.5-.58-8.18-.2-3,1.43-10.07,2.17-10.74.09.16.18.42.27.77.18.74.32,1.81.41,3.11.15,2.23.14,5.08,0,6.87-.23,3.15-.51,6.88-.64,8.18,0,.07-.06.65-.08.83-.03.34-.06.62-.09.89-.03.31-.07.59-.1.86-.12.92-.26,1.63-.43,2.12-.04.13-.09.24-.13.33-.05-.1-.09-.22-.14-.36m2.12-1.9c.04-.28.07-.57.11-.89.03-.28.06-.57.09-.91.02-.18.07-.76.08-.84.12-1.32.41-5.05.64-8.21.43-5.81,0-12.32-2-12.33-2.01,0-3.97,8.29-3.7,12.32.11,1.69.48,6.92.58,8.2.07.85.1,1.17.14,1.64.03.32.06.62.1.9.33,2.66.76,3.98,1.98,3.98,1.2,0,1.64-1.27,1.98-3.87"/>
  <path class="cls-1" d="m52.53,144.08c-1.05-.75-2.44-2.43-3.42-3.6-.95-1.15-4.38-5.35-5.19-6.35-1.4-1.73-4.78-9.13-4.54-10.1.37-.26.25-.54.6-.61l.15-.18c.17-.12.19.55.35.47.54.26,4.82,6.83,5.56,8.06.66,1.1,3.36,5.61,4.19,7.06.95,1.67,2.44,4.19,2.31,5.27"/>
  <path class="cls-2" d="m52.78,143.38c-.48-.38-1.06-.97-1.76-1.76-.34-.38-.66-.76-1.12-1.31q-.12-.14-.24-.28c-.78-.93-3.82-4.66-5.18-6.35-1.89-2.34-4.62-9.04-4.4-10.02.17.08.39.24.66.47.58.5,1.3,1.29,2.12,2.3,1.4,1.73,3.03,4.06,3.96,5.6.05.08.63,1.06.87,1.45.47.78.89,1.49,1.29,2.16l.07.12c.93,1.56,1.6,2.7,1.94,3.3.04.06.39.67.49.85.19.34.36.63.51.91.52.96.89,1.72,1.08,2.31.07.21.12.39.14.54-.12-.07-.27-.17-.43-.29m-2.5-8.34l-.07-.12c-.4-.67-.82-1.38-1.29-2.16-.24-.39-.82-1.37-.87-1.46-3-5-7.1-10.06-8.73-8.91-1.65,1.16,1.52,9.05,4.06,12.19,1.37,1.69,4.41,5.42,5.2,6.36q.12.14.24.28c.47.56.8.95,1.15,1.35,1.97,2.23,3.14,3.15,4.18,2.42,1.06-.74.58-2.14-.89-4.84-.16-.29-.32-.59-.52-.93-.1-.18-.45-.79-.49-.86-.35-.61-1.02-1.76-1.96-3.32"/>
  <path class="cls-1" d="m53.26,145.17c-.89-.49-2.53-.91-3.69-1.21-1.13-.29-5.24-1.31-6.21-1.55-1.68-.41-7.98-.35-8.56.14-.05.35-.29.36-.21.62l-.07.16c-.02.16.44-.05.44.09.37.29,6.41,1.13,7.51,1.24,1,.1,5.05.51,6.34.61,1.49.12,3.75.33,4.44-.11"/>
  <path class="cls-2" d="m51.25,145.03c-.2-.06-.42-.12-.65-.19-.34-.09-.58-.16-1.19-.32-.97-.25-4.92-1.23-6.21-1.55-2.27-.56-7.86-.26-8.43.2.11.1.31.21.58.32.55.24,1.35.49,2.34.73,1.69.42,3.87.79,5.26.93,2.24.23,5.31.53,6.33.61.32.03.5.04.66.05.26.02.49.04.7.05.25.02.49.03.71.04,1.18.05,1.96-.08,1.99-.07-.03-.04-.83-.45-2.08-.83m3.17.98c-.13.93-1.14,1.1-3.13,1.02-.23,0-.47-.02-.74-.04-.22-.01-.45-.03-.72-.05-.16-.01-.34-.03-.66-.05-1.03-.08-4.1-.39-6.35-.62-4.47-.45-9.41-1.66-9.21-3.17.21-1.56,6.78-1.94,9.84-1.19,1.3.31,5.25,1.3,6.22,1.55.62.16.86.22,1.21.32.24.07.46.13.67.19,2.01.61,2.98,1.11,2.85,2.04"/>
  <path class="cls-1" d="m25.46,130.26c-1.17-.55-3.31-.95-4.82-1.23-1.47-.27-6.82-1.22-8.09-1.44-2.19-.38-10.32.27-11.05.95-.05.45-.35.48-.24.82l-.08.22c-.02.21.58-.11.58.07.49.34,8.32.88,9.75.93,1.29.04,6.54.2,8.22.22,1.92.02,4.86.09,5.73-.55"/>
  <path class="cls-2" d="m25.06,130.92c-.49-.22-1.21-.44-2.14-.65-.27-.06-.55-.12-.86-.19-.45-.09-.76-.15-1.59-.31-1.21-.23-6.08-1.09-8.08-1.43-2.96-.51-10.16.37-10.91,1.03.15.11.4.23.74.35.72.26,1.76.51,3.04.73,2.2.38,5.03.67,6.83.72.64.02,1.13.03,1.69.05.88.03,1.72.05,2.51.07h.04c1.88.05,3.26.09,3.96.1.06,0,.65,0,.84,0,.34,0,.62,0,.9,0,.31,0,.6,0,.86-.01.93-.03,1.65-.09,2.16-.21.14-.03.25-.06.34-.1-.09-.06-.2-.12-.34-.18m-2.11,1.91c-.28,0-.58.01-.9.01-.28,0-.57,0-.92,0-.19,0-.78,0-.84,0-.71,0-2.1-.04-3.98-.1h-.04c-.79-.02-1.62-.05-2.51-.07-.57-.02-1.05-.03-1.69-.05-5.84-.18-12.26-1.3-12.05-3.28.21-2,8.66-3.08,12.64-2.39,2.01.35,6.88,1.21,8.1,1.44.84.16,1.15.22,1.61.31.32.07.61.13.89.19,2.61.6,3.88,1.17,3.75,2.39-.12,1.19-1.44,1.49-4.05,1.57"/>
  <path class="cls-1" d="m64.9,109.98c-.43-.77-.8-2.21-1.07-3.22-.26-.98-1.16-4.58-1.37-5.43-.36-1.47-.31-7.03.12-7.56.3-.05.31-.26.55-.2l.14-.07c.14-.02-.04.4.08.39.26.31,1,5.62,1.1,6.59.09.88.45,4.44.54,5.58.11,1.31.29,3.3-.1,3.92"/>
  <path class="cls-2" d="m63.36,94.21c.21.47.43,1.17.65,2.04.36,1.47.7,3.39.82,4.61.04.43.08.76.12,1.15.06.6.12,1.17.17,1.7v.03c.13,1.27.22,2.2.25,2.68.02.29.04.46.05.6.02.24.03.44.05.64.02.27.03.51.04.74.03.99-.08,1.63-.07,1.62-.01,0-.39-.71-.73-1.86-.06-.18-.11-.37-.17-.58-.08-.28-.13-.48-.26-.96-.22-.83-1.06-4.2-1.37-5.42-.51-2.09-.21-7.4.24-7.52-.08.02.05.17.21.53m3.12,14.15c0-.24-.02-.49-.04-.77-.01-.2-.03-.41-.05-.66-.01-.14-.03-.31-.05-.6-.04-.48-.13-1.42-.25-2.7v-.03c-.06-.54-.11-1.1-.17-1.71-.04-.38-.07-.71-.12-1.15-.41-3.98-1.48-8.27-2.81-8.04-1.35.24-1.68,6.04-1.02,8.71.3,1.22,1.15,4.61,1.37,5.44.13.49.18.69.26.97.06.21.12.41.17.6.55,1.82,1,2.68,1.84,2.53.77-.14.93-.99.88-2.61"/>
  <path class="cls-1" d="m23.83,129.14c-.76-.45-1.8-1.51-2.53-2.26-.72-.72-3.28-3.39-3.89-4.03-1.04-1.09-3.76-5.94-3.65-6.61.24-.2.14-.38.37-.45l.1-.13c.11-.09.16.37.26.3.38.15,3.66,4.37,4.23,5.16.52.71,2.6,3.62,3.24,4.56.74,1.08,1.89,2.71,1.87,3.45"/>
  <path class="cls-2" d="m14.7,116.26c.42.31.96.8,1.57,1.44,1.05,1.1,2.29,2.59,3,3.59.92,1.28,2.72,3.8,3.24,4.55-.02-.03.29.42.38.56.15.22.28.41.4.6.72,1.1,1.07,1.92,1.05,1.94h0s-.77-.48-1.7-1.38c-.29-.28-.51-.5-.99-.99-.57-.58-2.73-2.81-3.89-4.02-1.49-1.55-3.87-6.32-3.52-6.63-.06.05.12.12.45.35m9.41,10.2c-.12-.19-.26-.39-.41-.61-.09-.13-.4-.59-.38-.56-.52-.76-2.32-3.29-3.25-4.57-2.31-3.22-5.39-6.44-6.43-5.57-1.06.87,1.54,6.07,3.44,8.06,1.16,1.21,3.32,3.45,3.89,4.03.49.5.71.72,1.01,1.01,1.48,1.42,2.33,1.99,3,1.43.67-.56.28-1.48-.86-3.22"/>
  <path class="cls-1" d="m20.37,128.53c-1.04-.23-2.57-1.09-3.66-1.69-1.05-.59-4.86-2.76-5.76-3.28-1.55-.9-6.11-5.69-6.15-6.56.24-.35.07-.53.34-.71l.08-.2c.11-.16.29.38.39.25.5.01,5.58,3.8,6.48,4.53.81.66,4.09,3.34,5.12,4.22,1.18,1.01,3.01,2.52,3.16,3.44"/>
  <path class="cls-2" d="m18.37,127.04c-.39-.21-.69-.37-1.36-.74-.95-.53-4.71-2.68-5.76-3.28-2.22-1.28-6.32-6.09-5.93-6.65.26-.38,4.85,2.26,7.48,4.4-.12-.1,1.79,1.47,2.53,2.07l.11.09c1.19.97,2.04,1.68,2.47,2.05.02.01.43.36.55.47.3.26.55.47.78.68,1.13,1.02,1.7,1.81,1.65,1.87-.06.08-1.08-.22-2.53-.97m1.7-1.82c-.24-.22-.49-.44-.8-.7-.13-.11-.54-.46-.56-.47-.44-.37-1.29-1.08-2.49-2.07l-.11-.09c-.74-.61-2.65-2.17-2.53-2.07-3.63-2.96-8.26-5.62-9.28-4.15-1.03,1.48,3.5,6.79,6.33,8.42,1.05.61,4.82,2.76,5.77,3.29.68.38.99.55,1.39.76,2.21,1.15,3.46,1.51,4.11.57.63-.92-.1-1.91-1.84-3.49"/>
  <path class="cls-2" d="m101.05,199.54c-4.64-30.11-4.12-53.57-.05-72.89.17-.81-.35-1.61-1.16-1.78-.81-.17-1.61.35-1.78,1.16-4.15,19.69-4.68,43.51.02,73.97.13.82.89,1.39,1.72,1.26.82-.13,1.39-.89,1.26-1.72"/>
  <path class="cls-1" d="m95.73,149.03c-.1-1.29-.82-3.34-1.32-4.79-.49-1.41-2.32-6.52-2.76-7.73-.75-2.09-5.35-8.81-6.3-9.1-.42.19-.59-.06-.83.2l-.23.04c-.19.09.38.44.22.54-.06.59,3.36,7.66,4.03,8.92.6,1.14,3.07,5.77,3.88,7.23.94,1.68,2.33,4.26,3.32,4.7"/>
  <path class="cls-2" d="m94.91,148.45c-.11-.59-.31-1.32-.59-2.19-.17-.52-.3-.9-.61-1.8-.4-1.17-2.09-5.89-2.76-7.72-1.02-2.83-5.35-8.63-6.3-8.94-.02.18,0,.46.06.82.13.75.43,1.78.87,3.01.76,2.1,1.92,4.7,2.76,6.28.56,1.06,1.22,2.3,1.86,3.49.94,1.77,1.65,3.08,2.01,3.73.27.49.42.76.57,1.02.19.33.35.62.51.89.53.89.98,1.56,1.36,2.01.13.15.24.26.34.35.01-.23-.02-.55-.1-.94m.74,2.4c-1.15.51-2.1-.57-3.58-3.08-.17-.28-.34-.58-.53-.92-.15-.27-.3-.54-.57-1.03-.37-.66-1.08-1.97-2.03-3.75-.64-1.2-1.3-2.44-1.86-3.5-2.73-5.13-4.95-11.27-3.13-12.08,1.84-.82,6.97,5.97,8.34,9.76.67,1.84,2.36,6.56,2.76,7.74.32.91.45,1.3.62,1.84.3.93.51,1.7.63,2.37.26,1.39.17,2.29-.66,2.66"/>
  <path class="cls-1" d="m95.71,151.45c.05-1.06.59-2.74.97-3.93.37-1.16,1.74-5.36,2.07-6.36.57-1.71,4.15-7.29,4.92-7.56.34.14.48-.07.68.14l.19.03c.16.07-.3.37-.17.44.06.48-2.55,6.31-3.07,7.35-.47.94-2.36,4.77-2.99,5.98-.72,1.39-1.8,3.52-2.59,3.9"/>
  <path class="cls-2" d="m96.46,150.25c.08-.34.18-.71.3-1.12.12-.41.2-.68.44-1.44.33-1.03,1.68-5.17,2.07-6.35.77-2.32,4.15-7.15,4.92-7.43.02.15,0,.38-.03.66-.09.62-.31,1.46-.64,2.47-.57,1.72-1.45,3.87-2.1,5.18-1.18,2.4-2.49,5.02-2.98,5.97-.25.49-.39.75-.53,1.01-.12.23-.23.43-.34.62-.68,1.22-1.28,1.96-1.35,2.03.02-.07.03-.69.25-1.61m2.11.14c.11-.2.23-.41.35-.64.14-.27.28-.54.54-1.02.28-.54.83-1.64,1.56-3.1.5-1,1.04-2.1,1.43-2.89,2.11-4.26,3.77-9.29,2.27-9.9-1.51-.62-5.53,5.03-6.55,8.15-.39,1.17-1.75,5.32-2.08,6.36-.24.77-.33,1.04-.45,1.46-.12.43-.23.82-.31,1.18-.39,1.66-.39,2.62.44,2.95.94.38,1.67-.5,2.81-2.54"/>
  <path class="cls-1" d="m98.95,131.02c.13-1.29.9-3.33,1.43-4.77.52-1.4,2.48-6.48,2.94-7.68.81-2.07,5.55-8.71,6.51-8.99.41.19.6-.05.83.22l.23.04c.19.09-.39.44-.23.54.04.59-3.54,7.6-4.24,8.85-.63,1.12-3.2,5.72-4.05,7.16-.98,1.66-2.43,4.21-3.42,4.64"/>
  <path class="cls-2" d="m99.61,131.34c0-.36.1-.86.27-1.49.13-.47.29-.99.5-1.58.18-.5.31-.86.64-1.76.43-1.15,2.18-5.7,2.94-7.68,1.09-2.8,5.55-8.52,6.51-8.83.01.19-.01.46-.08.81-.15.75-.47,1.78-.94,2.99-.81,2.08-2.02,4.66-2.9,6.23-.54.96-1.27,2.26-1.94,3.46-.98,1.75-1.72,3.05-2.1,3.69-.32.55-.5.85-.68,1.15-.17.29-.33.54-.48.79-.54.87-1.01,1.52-1.4,1.96-.13.14-.24.25-.34.33,0-.02,0-.05,0-.07m2.95-1.46c.16-.25.32-.52.49-.81.18-.31.36-.61.68-1.16.38-.65,1.12-1.96,2.11-3.71.67-1.2,1.4-2.5,1.94-3.46,2.86-5.11,5.21-11.18,3.4-12.03-1.82-.85-7.11,5.84-8.57,9.61-.76,1.98-2.51,6.54-2.94,7.69-.34.91-.47,1.27-.65,1.79-.22.62-.39,1.18-.53,1.68-.5,1.83-.52,2.94.43,3.38,1.14.53,2.1-.52,3.63-2.98"/>
  <path class="cls-1" d="m98.84,129.05c0-.88-.37-2.32-.63-3.33-.26-.99-1.21-4.56-1.45-5.41-.39-1.46-3.14-6.29-3.77-6.54-.29.11-.4-.08-.58.09h-.16c-.13.06.23.34.12.39-.07.4,1.85,5.4,2.24,6.29.35.81,1.76,4.1,2.23,5.13.54,1.19,1.35,3.03,1.99,3.38"/>
  <path class="cls-2" d="m98.25,128.17c-.05-.32-.13-.69-.22-1.11-.08-.35-.14-.59-.31-1.23-.23-.9-1.18-4.46-1.44-5.41-.56-2.07-3.41-6.57-3.85-6.44.08-.02.04.17.07.57.05.52.19,1.24.43,2.09.4,1.47,1.04,3.31,1.52,4.43.81,1.89,1.86,4.31,2.22,5.13q.09.2.18.4c.07.17.14.3.2.43.09.2.18.39.26.56.51,1.06.99,1.71,1.05,1.77-.02-.05,0-.49-.1-1.19m.43,2.11h0c-.81.28-1.39-.5-2.25-2.27-.09-.18-.18-.37-.27-.58-.06-.13-.12-.27-.2-.43q-.1-.21-.18-.4c-.37-.83-1.42-3.25-2.23-5.14-1.56-3.64-2.73-7.94-1.45-8.39,1.3-.45,4.4,4.45,5.12,7.11.26.95,1.21,4.51,1.45,5.42.17.66.23.89.31,1.26.1.44.18.83.24,1.18.21,1.28.14,2.03-.53,2.26"/>
  <path class="cls-1" d="m100.09,125.77c.34-1.01.39-2.77.44-4.01.04-1.21.14-5.6.16-6.64.04-1.79-1.72-8.17-2.44-8.66-.42.03-.49-.21-.78-.07l-.21-.03c-.19.01.18.44.01.47-.25.44.38,6.75.54,7.89.15,1.03.74,5.24.97,6.57.26,1.53.61,3.88,1.32,4.48"/>
  <path class="cls-2" d="m99.34,125.93h0c.06,0,.3-.72.42-1.95.03-.28.05-.58.07-.91.02-.39.03-.65.06-1.36.03-1.05.14-5.3.16-6.63.05-2.56-1.95-8.56-2.63-8.52-.46.03-.57,5.33-.09,8.69.35,2.5.79,5.51.96,6.56l.1.61c.04.25.08.45.11.65.05.26.09.5.14.72.28,1.36.64,2.15.7,2.14m.08,1.23c-1.07.07-1.55-1-1.99-3.13-.05-.23-.1-.48-.14-.75-.04-.2-.07-.41-.11-.66l-.1-.61c-.18-1.06-.61-4.08-.97-6.59-.66-4.64-.55-9.98,1.23-10.1,1.8-.12,4.01,6.51,3.95,9.77-.03,1.33-.13,5.6-.16,6.65-.03.72-.04.99-.06,1.39-.02.35-.04.67-.07.96-.19,1.94-.55,2.99-1.57,3.06"/>
  <path class="cls-1" d="m64.46,112.35c-.5-1.05-1.79-2.44-2.7-3.43-.89-.96-4.14-4.42-4.92-5.24-1.33-1.4-7.58-4.92-8.53-4.72-.31.35-.55.23-.68.56l-.19.14c-.15.16.48.2.37.35.14.53,5.43,4.89,6.43,5.64.9.68,4.58,3.43,5.76,4.28,1.37.97,3.43,2.5,4.46,2.4"/>
  <path class="cls-2" d="m64,113.05c.08-.09-.43-1.04-1.53-2.31-.32-.37-.61-.7-1.14-1.27l-.09-.09c-.75-.81-3.85-4.11-4.91-5.23-1.91-2-8.05-5.02-8.57-4.43-.36.4,3.56,4.53,6.51,6.75,2.19,1.64,4.82,3.61,5.75,4.27-.01,0,.53.38.69.49.28.2.52.36.74.52.79.53,1.42.9,1.92,1.11.43.18.63.19.62.2m1.01.91h0c-.83.93-2.11.4-4.32-1.09-.24-.16-.48-.33-.77-.53-.17-.12-.71-.5-.7-.5-.94-.68-3.58-2.64-5.78-4.29-4.05-3.05-8.04-7.26-6.7-8.75,1.34-1.5,8.15,1.85,10.58,4.41,1.07,1.12,4.17,4.42,4.92,5.24l.09.1c.54.59.84.92,1.17,1.31,1.67,1.95,2.34,3.18,1.51,4.11"/>
  <path class="cls-1" d="m36.73,73.33c-1.07-1.04-2.23-3.19-3.05-4.7-.8-1.48-3.64-6.87-4.31-8.16-1.15-2.21-2.79-11.28-2.14-12.35.57-.24.52-.58.98-.6l.26-.18c.26-.11.04.67.27.59.59.38,3.67,8.64,4.16,10.17.45,1.38,2.25,7,2.78,8.8.61,2.07,1.59,5.22,1.04,6.43"/>
  <path class="cls-2" d="m37.2,72.55c-.45-.47-.96-1.21-1.54-2.18-.22-.36-.44-.75-.68-1.19-.15-.28-.23-.41-.54-.99-.67-1.23-3.32-6.26-4.3-8.14-1.64-3.15-2.71-11.89-1.76-12.29.65-.27,4.04,6.22,5.49,10.71,1.14,3.52,2.36,7.38,2.78,8.78,0,0,.22.76.29.99.12.4.21.73.3,1.06.33,1.23.53,2.18.57,2.9.03.58-.03.83-.03.86-.01-.01-.21-.12-.57-.5m2.36-.46c-.05-.87-.27-1.92-.63-3.26-.09-.34-.19-.68-.31-1.09-.07-.23-.29-1-.29-.99-.24-.81-.75-2.42-1.43-4.58-.47-1.47-.98-3.08-1.36-4.24-1.99-6.18-5.46-12.81-7.85-11.8-2.4,1.01-1.21,10.7.88,14.72.99,1.89,3.65,6.93,4.32,8.17.32.59.39.72.55,1.01.25.46.48.86.71,1.24,1.63,2.74,2.84,4.02,4.3,3.4.91-.38,1.18-1.3,1.11-2.58"/>
  <path class="cls-1" d="m40.87,73.36c-1.46-.67-4.06-1.01-5.9-1.25-1.79-.24-8.31-1.01-9.85-1.19-2.66-.31-12.4,1.54-13.24,2.6-.02.66-.39.74-.22,1.22l-.09.32c0,.31.69-.22.71.04.61.45,10.09.36,11.82.27,1.55-.09,7.9-.43,9.91-.59,2.32-.18,5.86-.41,6.86-1.43"/>
  <path class="cls-2" d="m11.94,74.8s.01-.02.05.01c.17.13.48.28.9.43.87.29,2.13.54,3.68.72,2.66.31,6.09.41,8.24.3q.35-.02.83-.04c.55-.03.81-.04,1.2-.07,1.08-.06,2.07-.12,3.01-.17h.07c2.27-.13,3.93-.24,4.77-.31.08,0,.74-.06.94-.07.38-.03.7-.06,1.01-.09.44-.04.84-.08,1.21-.13,1.98-.25,3.11-.68,3.11-.81,0-.12-1.06-.61-2.96-.98-.4-.08-.83-.15-1.31-.22-.55-.08-.91-.13-1.91-.26-1.44-.19-7.03-.86-9.83-1.19-3.76-.43-12.81,1.8-13.02,2.92v-.04Zm30.93-.17c-.06,1.62-1.7,2.23-4.77,2.62-.4.05-.81.1-1.27.14-.32.03-.65.06-1.03.09-.21.02-.87.07-.95.07-.86.07-2.53.17-4.81.31h-.07c-.94.06-1.94.11-3.02.17-.39.02-.65.04-1.2.07q-.49.03-.83.05c-6.98.38-14.97-.55-14.87-3.34.09-2.8,10.29-5.33,15.14-4.77,2.82.33,8.41,1,9.86,1.19,1.01.13,1.39.18,1.95.27.5.08.95.15,1.38.24,2.95.57,4.54,1.3,4.49,2.9"/>
  <path class="cls-1" d="m37.35,72.55c-.68-.87-2.17-1.88-3.22-2.6-1.02-.7-4.77-3.21-5.66-3.8-1.54-1.02-8.07-2.92-8.91-2.52-.22.4-.47.33-.51.68l-.16.17c-.1.18.49.08.42.25.23.46,6.06,3.36,7.15,3.84.98.43,4.96,2.2,6.25,2.72,1.48.61,3.71,1.57,4.64,1.26"/>
  <path class="cls-2" d="m37.07,73.33c.06-.1-.58-.83-1.81-1.76-.25-.18-.51-.38-.82-.59-.19-.13-.26-.18-.69-.48-.89-.61-4.52-3.04-5.65-3.79-2.19-1.45-8.52-2.91-8.89-2.24-.25.45,4.26,3.45,7.45,4.86,2.12.94,5.22,2.3,6.23,2.72.02,0,.54.22.71.29.28.12.52.21.75.3.87.34,1.55.55,2.08.64.45.08.65.04.64.05m1.14.63c-.35.64-1.06.77-2,.61-.63-.11-1.38-.34-2.33-.71-.24-.09-.49-.19-.78-.31-.16-.07-.69-.28-.71-.29-1.03-.42-4.13-1.79-6.26-2.73-4.39-1.94-8.99-5-8.06-6.68.93-1.69,7.96-.07,10.75,1.78,1.13.75,4.77,3.19,5.67,3.8.44.3.51.35.7.49.32.22.59.42.85.62,1.88,1.41,2.73,2.4,2.17,3.42"/>
  <path class="cls-1" d="m31.78,68.49c-.72-.52-1.66-1.66-2.32-2.48-.65-.78-2.97-3.66-3.52-4.35-.94-1.18-3.22-6.25-3.06-6.9.26-.18.17-.37.41-.41l.1-.12c.12-.08.12.38.23.32.37.18,3.26,4.68,3.76,5.52.45.75,2.27,3.84,2.83,4.83.64,1.14,1.65,2.87,1.55,3.6"/>
  <path class="cls-2" d="m23.81,54.84c.39.34.88.88,1.44,1.58.95,1.18,2.05,2.78,2.68,3.84.22.38.4.67.59,1,.31.52.6,1.01.87,1.48l.05.08c.63,1.07,1.09,1.85,1.31,2.26.01.02.25.45.33.58.13.23.24.43.34.62.63,1.17.91,2.03.89,2.04-.02.01-.71-.54-1.55-1.5-.23-.26-.45-.52-.75-.89l-.17-.21c-.52-.63-2.49-3.07-3.52-4.35-1.34-1.68-3.29-6.63-2.92-6.92-.06.05.11.13.42.39m6.46,7.48l-.05-.09c-.27-.46-.56-.95-.87-1.48-.19-.32-.37-.62-.59-1-2.03-3.43-4.8-6.89-5.92-6.11-1.13.78,1,6.18,2.72,8.33,1.03,1.28,3,3.72,3.52,4.36l.17.21c.31.38.54.65.77.91,1.33,1.53,2.12,2.16,2.84,1.66.72-.5.41-1.45-.59-3.3-.11-.2-.22-.4-.35-.64-.07-.13-.31-.56-.33-.58-.23-.41-.69-1.2-1.32-2.28"/>
</svg>