<?xml version="1.0" encoding="UTF-8"?>
<svg id="Ebene_1" data-name="Ebene 1" xmlns="http://www.w3.org/2000/svg" xmlns:xlink="http://www.w3.org/1999/xlink" viewBox="0 0 40 40">
  <defs>
    <style>
      .cls-1 {
        clip-path: url(#clippath);
      }

      .cls-2 {
        fill: none;
      }

      .cls-2, .cls-3 {
        stroke-width: 0px;
      }

      .cls-3 {
        fill: #fff;
      }
    </style>
    <clipPath id="clippath">
      <rect class="cls-2" width="40" height="40"/>
    </clipPath>
  </defs>
  <g class="cls-1">
    <path class="cls-3" d="m33.09,36l.1.1h-7.18c-2.31,0-4.55-.81-6.34-2.28-1.78-1.47-3-3.51-3.45-5.78-.45-2.27-.09-4.62,1-6.66,1.09-2.04,2.86-3.63,5-4.52,2.14-.88,4.51-.99,6.73-.32,2.21.67,4.12,2.1,5.4,4.02,1.28,1.92,1.86,4.23,1.63,6.53-.23,2.3-1.25,4.45-2.89,6.08-.38.37-.59.87-.6,1.4,0,.26.06.53.16.77.1.24.25.46.44.65m-21.07-10c0,.67.06,1.34.16,2h-5.34l.7-.68c.19-.19.34-.41.44-.65.1-.24.15-.51.15-.77s-.05-.53-.15-.77c-.1-.24-.25-.46-.44-.65-1.12-1.11-2.01-2.43-2.61-3.88-.6-1.45-.91-3.02-.9-4.59,0-3.18,1.26-6.23,3.51-8.48s5.3-3.51,8.48-3.51c2.48-.01,4.91.75,6.93,2.18,2.03,1.43,3.55,3.47,4.36,5.81h-1.3c-3.71,0-7.27,1.47-9.89,4.1-2.62,2.62-4.1,6.18-4.1,9.89m25.21,8.38c1.25-1.68,2.11-3.62,2.52-5.67.4-2.06.34-4.18-.19-6.2-.53-2.03-1.5-3.91-2.85-5.51-1.35-1.6-3.04-2.88-4.96-3.74-.42-2.4-1.37-4.66-2.8-6.63-1.42-1.97-3.28-3.59-5.42-4.73C21.38.74,19.01.1,16.58.01c-2.43-.09-4.85.38-7.07,1.36-2.22.99-4.19,2.46-5.76,4.32-1.56,1.86-2.68,4.05-3.28,6.41-.59,2.36-.64,4.82-.13,7.2.5,2.38,1.54,4.61,3.04,6.53l-2.78,2.76c-.28.28-.47.64-.54,1.03-.08.39-.03.79.12,1.15.15.36.4.68.73.9.33.22.71.34,1.11.34h11.37c1.13,2.39,2.92,4.41,5.15,5.82,2.23,1.41,4.82,2.17,7.46,2.17h11.99c.39,0,.78-.12,1.11-.34.33-.22.58-.53.73-.9.15-.36.19-.76.12-1.15-.07-.39-.26-.74-.54-1.03l-2.2-2.2Z"/>
  </g>
</svg>