<?xml version="1.0" encoding="UTF-8"?>
<svg id="Ebene_1" data-name="Ebene 1" xmlns="http://www.w3.org/2000/svg" xmlns:xlink="http://www.w3.org/1999/xlink" viewBox="0 0 15.01 15.01">
  <defs>
    <style>
      .cls-1 {
        clip-path: url(#clippath);
      }

      .cls-2 {
        fill: none;
      }

      .cls-2, .cls-3 {
        stroke-width: 0px;
      }

      .cls-3 {
        fill: #00273b;
      }
    </style>
    <clipPath id="clippath">
      <rect class="cls-2" width="15.01" height="15.01"/>
    </clipPath>
  </defs>
  <g class="cls-1">
    <path class="cls-3" d="m9.27,7.5l5.38-5.36c.23-.24.37-.56.37-.89s-.13-.65-.37-.89C14.41.13,14.09,0,13.76,0s-.65.13-.89.37l-5.36,5.38L2.14.37C1.91.13,1.59,0,1.26,0S.6.13.37.37C.13.6,0,.92,0,1.25s.13.65.37.89l5.37,5.36L.37,12.87c-.12.12-.21.26-.27.41C.03,13.43,0,13.59,0,13.75s.03.33.1.48c.06.15.16.29.27.41.12.12.25.21.41.27.15.06.32.1.48.1s.33-.03.48-.1c.15-.06.29-.16.41-.27l5.36-5.38,5.36,5.38c.12.12.25.21.41.27.15.06.31.1.48.1s.33-.03.48-.1c.15-.06.29-.16.41-.27.12-.12.21-.25.27-.41.06-.15.1-.32.1-.48s-.03-.33-.1-.48c-.06-.15-.16-.29-.27-.41l-5.38-5.36Z"/>
  </g>
</svg>