<?xml version="1.0" encoding="UTF-8"?>
<svg id="Ebene_1" data-name="Ebene 1" xmlns="http://www.w3.org/2000/svg" xmlns:xlink="http://www.w3.org/1999/xlink" viewBox="0 0 42 42">
  <defs>
    <style>
      .cls-1 {
        clip-path: url(#clippath);
      }

      .cls-2 {
        fill: none;
      }

      .cls-2, .cls-3 {
        stroke-width: 0px;
      }

      .cls-3 {
        fill: #4b8764;
      }
    </style>
    <clipPath id="clippath">
      <rect class="cls-2" width="42" height="42"/>
    </clipPath>
  </defs>
  <g class="cls-1">
    <path class="cls-3" d="m15.21,18.45v3.96h3.42v10.17h4.09v-10.17h3.41l.51-3.96h-3.93v-2.53c0-1.16.33-1.92,1.96-1.92h2.1v-3.55c-1.02-.11-2.04-.16-3.06-.16-.67-.03-1.34.07-1.98.31-.63.23-1.21.59-1.71,1.04-.48.52-.86,1.13-1.1,1.8-.24.67-.35,1.38-.31,2.09v2.92h-3.42Zm5.79,23.55c-2.76,0-5.49-.53-8.04-1.59-2.55-1.06-4.86-2.61-6.81-4.56-1.96-1.95-3.51-4.26-4.56-6.81C.53,26.49,0,23.76,0,21c0-2.76.53-5.49,1.59-8.04,1.06-2.55,2.61-4.86,4.56-6.81,1.95-1.96,4.26-3.51,6.81-4.56C15.51.53,18.24,0,21,0c2.76,0,5.49.53,8.04,1.59,2.55,1.06,4.86,2.61,6.81,4.56,1.96,1.95,3.51,4.26,4.56,6.81,1.06,2.55,1.59,5.28,1.59,8.04,0,2.76-.53,5.49-1.59,8.04-1.06,2.55-2.61,4.86-4.56,6.81-1.95,1.96-4.26,3.51-6.81,4.56-2.55,1.06-5.28,1.6-8.04,1.59"/>
  </g>
</svg>