<?xml version="1.0" encoding="UTF-8"?>
<svg id="Ebene_1" data-name="Ebene 1" xmlns="http://www.w3.org/2000/svg" viewBox="0 0 237.49 32.44">
  <defs>
    <style>
      .cls-1 {
        fill: #473e49;
      }

      .cls-1, .cls-2, .cls-3 {
        stroke-width: 0px;
      }

      .cls-2 {
        fill: #38b0b5;
      }

      .cls-3 {
        fill: #f0ad4f;
      }
    </style>
  </defs>
  <rect class="cls-1" width="9.3" height="26.35"/>
  <rect class="cls-3" x="17.05" width="9.3" height="9.3"/>
  <rect class="cls-2" x="17.05" y="17.05" width="9.3" height="9.3"/>
  <path class="cls-1" d="m237.49,26.35h-5.29V.83h5.29v25.52Zm-17.7-3.22c.68,0,1.28-.12,1.79-.36.51-.24,1.03-.62,1.55-1.16v-2.46c-1.06.05-1.93.14-2.61.27-.68.14-1.22.31-1.62.51-.4.2-.67.44-.83.7-.15.26-.23.55-.23.85,0,.6.16,1.03.49,1.27.33.24.81.37,1.45.37m6.07,3.22c-.5,0-.88-.07-1.13-.2-.26-.14-.47-.42-.64-.85l-.38-.97c-.44.38-.87.7-1.28.99-.41.28-.83.53-1.27.72-.44.2-.9.35-1.4.44-.5.1-1.04.15-1.65.15-.81,0-1.54-.11-2.2-.32-.66-.21-1.22-.52-1.68-.93-.46-.41-.82-.92-1.07-1.53-.25-.61-.38-1.31-.38-2.11,0-.62.16-1.27.48-1.93.32-.66.87-1.26,1.65-1.8.78-.54,1.84-.99,3.17-1.35,1.33-.36,3.01-.57,5.03-.61v-.75c0-1.03-.21-1.78-.64-2.24-.43-.46-1.03-.69-1.82-.69-.62,0-1.14.07-1.53.2-.4.14-.75.29-1.07.46-.31.17-.62.32-.91.46-.3.14-.65.2-1.06.2-.36,0-.67-.09-.93-.26-.26-.18-.46-.4-.6-.66l-.96-1.65c1.07-.94,2.25-1.65,3.55-2.1,1.3-.46,2.7-.69,4.19-.69,1.07,0,2.03.17,2.89.52s1.59.83,2.18,1.45c.6.62,1.05,1.36,1.37,2.21.32.85.48,1.78.48,2.8v11.05h-2.42Zm-31.99,0V8.67h3.27c.33,0,.6.07.83.22.22.15.38.37.47.66l.31,1.02c.34-.32.69-.61,1.06-.89.36-.27.75-.5,1.17-.69.41-.19.86-.34,1.35-.44s1.01-.16,1.58-.16c.97,0,1.82.17,2.57.5.74.34,1.37.8,1.88,1.4.51.6.9,1.31,1.16,2.13.26.82.39,1.72.39,2.68v11.24h-5.29v-11.24c0-.86-.2-1.54-.6-2.02-.4-.48-.98-.73-1.76-.73-.58,0-1.13.12-1.64.38-.51.25-1,.59-1.47,1.01v12.6h-5.29Zm-14.08,0V8.67h3.14c.26,0,.48.02.66.07.18.05.32.12.44.21.12.1.21.23.27.38.06.16.12.35.16.58l.29,1.65c.65-1,1.38-1.79,2.18-2.37.81-.58,1.69-.87,2.64-.87.81,0,1.46.19,1.94.58l-.68,3.89c-.05.24-.14.41-.27.5-.14.1-.32.15-.55.15-.19,0-.42-.03-.68-.08-.26-.05-.59-.08-.99-.08-1.39,0-2.48.74-3.27,2.22v10.84h-5.29Zm-14.83-17.68v11.22c0,.88.2,1.55.6,2.03.4.48.98.72,1.76.72.58,0,1.12-.12,1.63-.36s1-.57,1.47-1.01v-12.6h5.29v17.68h-3.27c-.66,0-1.09-.3-1.3-.89l-.32-1.02c-.34.33-.69.63-1.06.9-.36.27-.75.49-1.17.68-.41.19-.86.33-1.34.44-.48.11-1,.16-1.57.16-.97,0-1.82-.17-2.57-.5-.74-.34-1.37-.8-1.88-1.41-.51-.6-.9-1.31-1.16-2.13-.26-.82-.39-1.72-.39-2.69v-11.22h5.29Zm-16.85,14.03c1.22,0,2.11-.43,2.69-1.29s.86-2.16.86-3.91-.29-3.05-.86-3.9c-.57-.85-1.47-1.28-2.69-1.28s-2.16.43-2.74,1.28c-.58.85-.87,2.15-.87,3.9s.29,3.06.87,3.91c.58.86,1.49,1.29,2.74,1.29m0-14.31c1.34,0,2.56.21,3.67.63,1.1.42,2.05,1.02,2.84,1.81.79.78,1.4,1.74,1.84,2.86.44,1.12.66,2.38.66,3.78s-.22,2.68-.66,3.81c-.44,1.13-1.05,2.09-1.84,2.88-.79.79-1.74,1.4-2.84,1.82-1.1.43-2.32.64-3.67.64s-2.58-.21-3.69-.64c-1.11-.43-2.06-1.03-2.86-1.82-.8-.79-1.42-1.75-1.86-2.88-.44-1.13-.66-2.4-.66-3.81s.22-2.66.66-3.78c.44-1.12,1.06-2.07,1.86-2.86.8-.78,1.76-1.39,2.86-1.81,1.11-.42,2.34-.63,3.69-.63m-11.46-4.57c0,.42-.09.82-.26,1.19-.17.37-.4.69-.7.97-.3.28-.64.5-1.03.66-.39.17-.81.25-1.25.25s-.83-.08-1.21-.25c-.38-.16-.71-.39-1-.66-.29-.28-.52-.6-.68-.97-.16-.37-.25-.77-.25-1.19s.08-.84.25-1.21.39-.7.68-.99c.29-.28.62-.51,1-.66.38-.16.78-.24,1.21-.24s.86.08,1.25.24c.39.16.74.38,1.03.66.29.28.53.61.7.99.17.38.26.78.26,1.21m-.61,4.84v17.71c0,.83-.11,1.61-.32,2.34-.21.73-.56,1.38-1.04,1.93-.48.55-1.12.99-1.91,1.3-.79.32-1.77.48-2.94.48-.43,0-.83-.03-1.2-.08-.37-.05-.75-.13-1.15-.23l.17-2.78c.02-.24.1-.41.24-.53.14-.11.41-.17.82-.17s.74-.03,1.01-.1c.26-.07.47-.19.62-.36.15-.17.26-.4.32-.69.06-.29.09-.66.09-1.12V8.67h5.29Zm-9.65,3.87c-.14.22-.28.37-.43.46-.15.09-.35.14-.59.14-.25,0-.5-.05-.75-.16-.25-.11-.52-.22-.81-.35-.29-.12-.62-.24-.98-.35s-.78-.16-1.25-.16c-.67,0-1.18.13-1.54.38s-.54.61-.54,1.07c0,.33.12.6.35.82.23.22.54.41.93.57.39.17.82.32,1.31.47.49.15.99.31,1.5.49.51.18,1.01.4,1.5.64.49.24.93.55,1.31.9.39.36.7.79.93,1.31.23.51.35,1.12.35,1.84,0,.88-.16,1.68-.48,2.42s-.79,1.38-1.42,1.91c-.63.53-1.41.95-2.34,1.24-.93.3-1.99.44-3.2.44-.6,0-1.21-.06-1.81-.17-.6-.11-1.18-.27-1.75-.46-.56-.19-1.08-.42-1.56-.69-.48-.27-.89-.55-1.23-.86l1.23-1.94c.15-.23.32-.41.53-.54.21-.13.47-.2.8-.2.31,0,.58.07.83.2.25.14.51.28.79.44.28.16.62.31,1,.44.38.14.86.2,1.44.2.41,0,.76-.04,1.04-.13.28-.09.51-.2.68-.35.17-.15.3-.31.38-.49.08-.18.12-.37.12-.56,0-.35-.12-.64-.36-.87-.24-.23-.55-.42-.94-.59-.39-.16-.83-.32-1.32-.46-.5-.14-1-.3-1.51-.49-.51-.18-1.01-.4-1.51-.66-.5-.26-.93-.58-1.32-.97-.39-.39-.7-.87-.94-1.44-.24-.57-.36-1.26-.36-2.06,0-.75.15-1.46.43-2.14.29-.68.72-1.27,1.3-1.78.58-.51,1.31-.92,2.18-1.22.88-.3,1.9-.45,3.07-.45.64,0,1.25.06,1.85.17.6.11,1.16.27,1.68.48.52.2,1,.45,1.43.73.43.28.81.58,1.14.91l-1.19,1.86Zm-25.64-3.87v11.22c0,.88.2,1.55.6,2.03.4.48.98.72,1.76.72.58,0,1.12-.12,1.63-.36.5-.24,1-.57,1.47-1.01v-12.6h5.29v17.68h-3.27c-.66,0-1.09-.3-1.3-.89l-.32-1.02c-.34.33-.69.63-1.06.9-.36.27-.75.49-1.17.68-.42.19-.86.33-1.34.44-.48.11-1,.16-1.57.16-.97,0-1.82-.17-2.57-.5-.74-.34-1.37-.8-1.88-1.41-.51-.6-.9-1.31-1.16-2.13-.26-.82-.39-1.72-.39-2.69v-11.22h5.29Zm-17.19,14.46c.68,0,1.28-.12,1.79-.36.51-.24,1.03-.62,1.55-1.16v-2.46c-1.06.05-1.93.14-2.61.27-.68.14-1.22.31-1.62.51-.4.2-.67.44-.83.7-.15.26-.23.55-.23.85,0,.6.17,1.03.49,1.27.33.24.81.37,1.45.37m6.07,3.22c-.5,0-.88-.07-1.13-.2-.26-.14-.47-.42-.64-.85l-.38-.97c-.44.38-.87.7-1.28.99-.41.28-.83.53-1.27.72-.44.2-.9.35-1.4.44-.49.1-1.04.15-1.65.15-.81,0-1.54-.11-2.2-.32-.66-.21-1.22-.52-1.68-.93-.46-.41-.82-.92-1.07-1.53-.25-.61-.38-1.31-.38-2.11,0-.62.16-1.27.48-1.93s.87-1.26,1.65-1.8c.78-.54,1.84-.99,3.17-1.35,1.33-.36,3.01-.57,5.03-.61v-.75c0-1.03-.21-1.78-.64-2.24-.43-.46-1.03-.69-1.82-.69-.63,0-1.14.07-1.53.2-.4.14-.75.29-1.07.46-.31.17-.62.32-.91.46-.3.14-.65.2-1.06.2-.36,0-.67-.09-.93-.26-.26-.18-.46-.4-.6-.66l-.96-1.65c1.07-.94,2.25-1.65,3.56-2.1,1.3-.46,2.7-.69,4.19-.69,1.07,0,2.03.17,2.89.52.86.35,1.58.83,2.18,1.45.6.62,1.05,1.36,1.37,2.21.32.85.48,1.78.48,2.8v11.05h-2.42Zm-16.3,0h-5.8v-10.5h-10.09v10.5h-5.8V1.51h5.8v10.38h10.09V1.51h5.8v24.84Z"/>
</svg>