<?xml version="1.0" encoding="UTF-8"?>
<svg id="Ebene_1" data-name="Ebene 1" xmlns="http://www.w3.org/2000/svg" viewBox="0 0 44 39.6">
  <defs>
    <style>
      .cls-1 {
        fill: #fff;
        stroke-width: 0px;
      }
    </style>
  </defs>
  <path class="cls-1" d="m24.2,0c-4.08,0-8,1.62-10.89,4.51s-4.51,6.81-4.51,10.89,1.62,8,4.51,10.89c2.89,2.89,6.81,4.51,10.89,4.51,2.92,0,5.72-1.16,7.78-3.22,2.06-2.06,3.22-4.86,3.22-7.78s-1.16-5.72-3.22-7.78-4.86-3.22-7.78-3.22c-1.75,0-3.43.69-4.67,1.93-1.24,1.24-1.93,2.92-1.93,4.67s.69,3.43,1.93,4.67c1.24,1.24,2.92,1.93,4.67,1.93.58,0,1.14-.23,1.56-.64.41-.41.64-.97.64-1.56s-.23-1.14-.64-1.56c-.41-.41-.97-.64-1.56-.64s-1.14-.23-1.56-.64c-.41-.41-.64-.97-.64-1.56s.23-1.14.64-1.56c.41-.41.97-.64,1.56-.64,1.75,0,3.43.69,4.67,1.93s1.93,2.92,1.93,4.67-.69,3.43-1.93,4.67c-1.24,1.24-2.92,1.93-4.67,1.93-2.92,0-5.72-1.16-7.78-3.22s-3.22-4.86-3.22-7.78,1.16-5.71,3.22-7.78,4.86-3.22,7.78-3.22c4.08,0,8,1.62,10.89,4.51s4.51,6.81,4.51,10.89-1.62,8-4.51,10.89c-2.89,2.89-6.81,4.51-10.89,4.51-5.25,0-10.29-2.09-14-5.8-3.71-3.71-5.8-8.75-5.8-14,0-.58-.23-1.14-.64-1.56-.41-.41-.97-.64-1.56-.64s-1.14.23-1.56.64c-.41.41-.64.97-.64,1.56,0,6.42,2.55,12.57,7.09,17.11,4.54,4.54,10.69,7.09,17.11,7.09,5.25,0,10.29-2.09,14-5.8,3.71-3.71,5.8-8.75,5.8-14s-2.09-10.29-5.8-14c-3.71-3.71-8.75-5.8-14-5.8"/>
</svg>