<?xml version="1.0" encoding="UTF-8"?>
<svg id="Ebene_1" data-name="Ebene 1" xmlns="http://www.w3.org/2000/svg" viewBox="0 0 29.09 40">
  <defs>
    <style>
      .cls-1 {
        fill: #fff;
        stroke-width: 0px;
      }
    </style>
  </defs>
  <path class="cls-1" d="m23.03,21.38c-1.83,2.17-2.89,4.88-3.04,7.71h-3.64v-5.45c0-.48-.19-.94-.53-1.28-.34-.34-.8-.53-1.29-.53s-.95.19-1.29.53-.53.8-.53,1.28v5.45h-3.64c-.05-2.78-1.08-5.46-2.91-7.56-1.21-1.45-2.02-3.18-2.36-5.04-.34-1.85-.19-3.76.43-5.55.62-1.78,1.69-3.37,3.11-4.61,1.42-1.24,3.13-2.1,4.98-2.48,1.59-.33,3.23-.29,4.8.09,1.57.39,3.04,1.12,4.3,2.14,1.26,1.02,2.27,2.31,2.96,3.78.69,1.46,1.05,3.06,1.05,4.68.01,2.49-.84,4.91-2.42,6.84m-3.04,13.16c0,.48-.19.94-.53,1.28-.34.34-.8.53-1.29.53h-7.27c-.48,0-.94-.19-1.29-.53-.34-.34-.53-.8-.53-1.28v-1.82h10.91v1.82Zm3.8-31.24c-1.67-1.38-3.63-2.36-5.73-2.88-2.1-.52-4.29-.57-6.41-.14-2.82.57-5.42,1.97-7.44,4.01C2.18,6.35.8,8.95.25,11.78c-.4,2.12-.33,4.31.21,6.4.54,2.09,1.54,4.03,2.91,5.69,1.28,1.44,2.01,3.29,2.07,5.22v5.45c0,1.45.57,2.83,1.6,3.86,1.02,1.02,2.41,1.6,3.86,1.6h7.27c1.45,0,2.83-.58,3.86-1.6,1.02-1.02,1.6-2.41,1.6-3.86v-5.11c.06-2.13.84-4.17,2.22-5.8,2.41-2.98,3.54-6.79,3.16-10.6-.39-3.81-2.26-7.32-5.22-9.76v.04Z"/>
</svg>