<?xml version="1.0" encoding="UTF-8"?>
<svg id="Ebene_1" data-name="Ebene 1" xmlns="http://www.w3.org/2000/svg" xmlns:xlink="http://www.w3.org/1999/xlink" viewBox="0 0 42 42">
  <defs>
    <style>
      .cls-1 {
        clip-path: url(#clippath);
      }

      .cls-2 {
        fill: none;
      }

      .cls-2, .cls-3 {
        stroke-width: 0px;
      }

      .cls-3 {
        fill: #4b8764;
      }
    </style>
    <clipPath id="clippath">
      <rect class="cls-2" width="42" height="42"/>
    </clipPath>
  </defs>
  <g class="cls-1">
    <path class="cls-3" d="m20.88,24.95c-.8,0-1.58-.24-2.24-.68s-1.18-1.08-1.49-1.81c-.31-.74-.39-1.55-.23-2.33.16-.78.54-1.5,1.11-2.07.56-.57,1.28-.95,2.07-1.11.78-.16,1.6-.08,2.33.23.74.31,1.37.82,1.81,1.49.44.66.68,1.45.68,2.24,0,.53-.1,1.06-.31,1.55-.2.49-.5.94-.88,1.31-.38.38-.82.67-1.31.88-.49.2-1.02.31-1.55.31h0Zm6.47-11.97c-.29,0-.57.09-.81.25-.24.16-.43.39-.54.65-.11.27-.14.56-.08.84.06.28.19.54.4.75.2.2.46.34.75.4.28.06.58.03.84-.08.27-.11.49-.3.65-.54.16-.24.24-.52.24-.81,0-.38-.16-.75-.43-1.02-.27-.27-.64-.42-1.03-.42h0Zm-6.47,1.7c-1.23,0-2.43.36-3.46,1.05-1.02.68-1.82,1.66-2.29,2.79-.47,1.14-.6,2.39-.36,3.6.24,1.21.83,2.32,1.7,3.19.87.87,1.98,1.47,3.19,1.71,1.21.24,2.46.12,3.6-.35,1.14-.47,2.11-1.27,2.8-2.29.68-1.02,1.05-2.23,1.05-3.46,0-1.65-.66-3.23-1.82-4.4-1.17-1.17-2.75-1.82-4.4-1.83h0Zm0,16.17c-3.2,0-3.59-.01-4.9-.07-.77-.01-1.53-.15-2.25-.42-.52-.2-1-.51-1.39-.91-.4-.4-.71-.87-.91-1.39-.26-.72-.41-1.49-.42-2.25-.05-1.25-.07-1.63-.07-4.9s.01-3.65.07-4.9c.01-.77.15-1.53.42-2.25.2-.52.51-1,.91-1.4.4-.4.87-.71,1.39-.91.72-.27,1.49-.41,2.26-.42,1.11-.05,1.53-.07,3.81-.07h1.09c3.27,0,3.65.02,4.9.07.77.01,1.53.15,2.25.42.52.2,1,.51,1.39.91.4.4.7.87.91,1.39.27.72.41,1.48.42,2.25.06,1.31.07,1.7.07,4.89s-.01,3.59-.07,4.9c-.01.77-.15,1.53-.42,2.26-.19.53-.5,1.01-.91,1.4-.39.4-.87.71-1.4.91-.72.27-1.48.41-2.25.42-1.3.06-1.69.07-4.89.07h0Zm0-22.08c-3.27,0-3.7.01-5,.08-1,.02-2,.22-2.94.57-.81.3-1.55.78-2.15,1.4-.61.61-1.09,1.34-1.4,2.15-.36.94-.55,1.94-.56,2.94v.05c-.05,1.23-.07,1.69-.07,4.95s.01,3.71.07,5c.02,1,.21,2,.56,2.94.31.81.79,1.54,1.4,2.15.61.61,1.34,1.09,2.15,1.4.94.35,1.94.54,2.94.56,1.3.06,1.73.08,5,.08s3.69-.01,5-.08c1.01-.02,2.01-.21,2.95-.56.81-.3,1.54-.78,2.14-1.4.61-.61,1.09-1.34,1.4-2.15.35-.94.54-1.94.56-2.94v-.12c.05-1.19.07-1.68.07-4.88s-.01-3.7-.07-5c-.02-1.01-.21-2-.56-2.95-.3-.81-.78-1.54-1.4-2.15-.61-.62-1.34-1.09-2.15-1.4-.94-.35-1.94-.54-2.95-.57-1.3-.06-1.73-.08-5-.08m.1,33.22c-4.15,0-8.21-1.23-11.66-3.54-3.45-2.31-6.14-5.58-7.73-9.42C0,25.21-.41,21,.4,16.93c.81-4.07,2.81-7.81,5.74-10.74,1.95-1.96,4.26-3.51,6.81-4.57C15.5.55,18.23,0,20.99,0c2.76,0,5.49.54,8.05,1.59,2.55,1.05,4.87,2.6,6.82,4.55,1.95,1.95,3.5,4.27,4.55,6.82,1.06,2.55,1.6,5.28,1.59,8.04,0,2.76-.55,5.49-1.61,8.04-1.06,2.55-2.61,4.86-4.57,6.81-1.94,1.95-4.26,3.5-6.8,4.56-2.55,1.05-5.28,1.59-8.03,1.59"/>
  </g>
</svg>