<?xml version="1.0" encoding="UTF-8"?>
<svg id="Ebene_1" data-name="Ebene 1" xmlns="http://www.w3.org/2000/svg" viewBox="0 0 265.13 30.25">
  <defs>
    <style>
      .cls-1 {
        fill: #d1da4a;
      }

      .cls-1, .cls-2 {
        stroke-width: 0px;
      }

      .cls-2 {
        fill: #00273c;
      }
    </style>
  </defs>
  <path class="cls-2" d="m255.92,20.57c-3.06,0-5.55-2.52-5.55-5.61s2.49-5.62,5.55-5.62,5.55,2.52,5.55,5.62-2.49,5.61-5.55,5.61m-.06-14.64c-5.11,0-9.27,4.04-9.27,9.02s4.16,9.02,9.27,9.02c2.18,0,4.13-.92,5.52-2.37-.16,2.93-2.55,5.24-5.52,5.24-2.05,0-3.85-1.14-4.76-2.84h-4.07c1.2,3.63,4.7,6.25,8.83,6.25,5.11,0,9.27-4.04,9.27-9.02v-6.28c0-4.98-4.16-9.02-9.27-9.02m-15.52,17.54h3.79v-9.15c0-4.64-3.75-8.39-8.39-8.39s-8.39,3.75-8.39,8.39v9.15h3.79v-9.37c0-2.62,2.05-4.76,4.61-4.76s4.61,2.15,4.61,4.76v9.37Zm-16.47-17.03h-3.79v17.03h3.79V6.43Zm.38-4.16c0-1.26-1.01-2.27-2.27-2.27s-2.27,1.01-2.27,2.27,1.01,2.27,2.27,2.27,2.27-1.01,2.27-2.27m-7.63,12.05c0-4.64-3.75-8.39-8.39-8.39-1.77,0-3.38.66-4.61,1.77V.76h-3.79v22.71h3.79v-9.37c0-2.62,2.05-4.76,4.61-4.76s4.61,2.15,4.61,4.76v9.37h3.79v-9.15Zm-32.87,4.07c0,3.09,2.97,5.58,6.62,5.58s6.62-2.56,6.62-5.68c0-2.84-2.33-4.45-5.05-4.95-2.11-.38-4.13-1.2-4.13-2.37,0-1.01.98-1.83,2.21-1.83,1.39,0,2.52.95,2.52,2.14h3.79c0-2.97-2.84-5.36-6.31-5.36s-5.99,2.33-5.99,5.2c0,2.71,2.96,4.39,6.59,5.08,1.61.31,2.59,1.13,2.59,2.24,0,1.26-1.26,2.3-2.84,2.3s-2.84-1.07-2.84-2.37h-3.79Zm-3.09-11.96h-3.79v17.03h3.79V6.43Zm.38-4.16c0-1.26-1.01-2.27-2.27-2.27s-2.27,1.01-2.27,2.27,1.01,2.27,2.27,2.27,2.27-1.01,2.27-2.27m-8.74-1.51h-3.79v22.71h3.79V.76Zm-16.06,19.81c-3.06,0-5.55-2.52-5.55-5.61s2.49-5.62,5.55-5.62,5.55,2.52,5.55,5.62-2.49,5.61-5.55,5.61m.06-14.64c-2.14,0-4.1.92-5.49,2.33V.76h-3.79v22.71h3.6v-2.14c1.36,1.61,3.41,2.65,5.68,2.65,5.11,0,9.27-4.04,9.27-9.02s-4.16-9.02-9.27-9.02m-25.52.5h-3.79v9.18c0,4.61,3.75,8.36,8.36,8.36s8.36-3.75,8.36-8.36V6.43h-3.79v9.34c0,2.65-2.05,4.8-4.57,4.8s-4.57-2.15-4.57-4.8V6.43Zm-15.58,14.13c-3.06,0-5.55-2.52-5.55-5.61s2.49-5.62,5.55-5.62,5.55,2.52,5.55,5.62-2.49,5.61-5.55,5.61m.06-14.64c-5.11,0-9.27,4.04-9.27,9.02v14.19h3.79v-7.6c1.36,1.48,3.31,2.43,5.49,2.43,5.11,0,9.27-4.04,9.27-9.02s-4.16-9.02-9.27-9.02m-24.63,14.64h-.16c-2.62,0-4.73-2.11-4.73-4.73v-6.12h4.89v-3.28h-4.89V.76h-3.78v15.02c0,4.54,3.66,8.2,8.2,8.2h.47v-3.41Zm-24.54-14.13h-3.79v9.18c0,4.61,3.75,8.36,8.36,8.36s8.36-3.75,8.36-8.36V6.43h-3.79v9.34c0,2.65-2.05,4.8-4.57,4.8s-4.57-2.15-4.57-4.8V6.43Zm-14.92,14.13c-3.06,0-5.52-2.52-5.52-5.61s2.46-5.62,5.52-5.62,5.52,2.52,5.52,5.62-2.46,5.61-5.52,5.61m0-14.64c-5.14,0-9.31,4.04-9.31,9.02s4.16,9.02,9.31,9.02,9.31-4.04,9.31-9.02-4.16-9.02-9.31-9.02m-20.09,14.64c-3.06,0-5.55-2.52-5.55-5.61s2.49-5.62,5.55-5.62,5.55,2.52,5.55,5.62-2.49,5.61-5.55,5.61m.06-14.64c-2.15,0-4.1.92-5.49,2.33V.76h-3.79v22.71h3.6v-2.14c1.36,1.61,3.41,2.65,5.68,2.65,5.11,0,9.28-4.04,9.28-9.02s-4.16-9.02-9.28-9.02m-21.8,14.64c-3.06,0-5.55-2.52-5.55-5.61s2.49-5.62,5.55-5.62,5.55,2.52,5.55,5.62-2.49,5.61-5.55,5.61m-.06-14.64C4.16,5.93,0,9.97,0,14.95s4.16,9.02,9.27,9.02c2.3,0,4.35-1.07,5.68-2.78v2.27h3.6v-8.52c0-4.98-4.13-9.02-9.27-9.02"/>
  <path class="cls-1" d="m101.45,13.89c.44-.6.71-1.33.71-2.13,0-1.98-1.61-3.59-3.59-3.59s-3.59,1.61-3.59,3.59c0,.8.27,1.53.71,2.13.84-.52,1.82-.83,2.88-.83s2.04.31,2.88.83"/>
  <path class="cls-1" d="m98.57,15.01c-1.96,0-3.55,1.59-3.55,3.55s1.59,3.55,3.55,3.55,3.55-1.59,3.55-3.55-1.59-3.55-3.55-3.55"/>
</svg>