<?xml version="1.0" encoding="UTF-8"?>
<svg id="Ebene_1" data-name="Ebene 1" xmlns="http://www.w3.org/2000/svg" viewBox="0 0 177.48 36.07">
  <defs>
    <style>
      .cls-1 {
        fill: #356247;
        stroke-width: 0px;
      }
    </style>
  </defs>
  <path class="cls-1" d="m39.72,21.64h6.9v.55c0,1.26-.15,2.37-.44,3.33-.29.9-.78,1.73-1.46,2.51-1.55,1.75-3.52,2.62-5.92,2.62s-4.34-.84-6-2.53c-1.67-1.69-2.5-3.73-2.5-6.1s.85-4.48,2.54-6.17c1.69-1.69,3.76-2.54,6.19-2.54,1.31,0,2.52.27,3.66.8,1.08.53,2.15,1.4,3.19,2.6l-1.8,1.72c-1.37-1.82-3.04-2.74-5.01-2.74-1.77,0-3.25.61-4.45,1.83-1.2,1.2-1.8,2.7-1.8,4.5s.67,3.39,2,4.6c1.25,1.12,2.6,1.68,4.06,1.68,1.24,0,2.35-.42,3.34-1.26.99-.84,1.54-1.85,1.66-3.03h-4.17v-2.37Z"/>
  <path class="cls-1" d="m57.53,19.8h2.45v10.54h-2.45v-1.1c-1,.94-2.08,1.41-3.24,1.41-1.46,0-2.66-.53-3.61-1.58-.95-1.08-1.42-2.42-1.42-4.02s.47-2.9,1.42-3.95c.94-1.05,2.13-1.58,3.55-1.58,1.23,0,2.33.51,3.3,1.51v-1.22Zm-5.78,5.24c0,1.01.27,1.83.81,2.47.56.64,1.26.96,2.1.96.9,0,1.63-.31,2.19-.93.56-.64.83-1.46.83-2.45s-.28-1.8-.83-2.45c-.56-.63-1.28-.94-2.16-.94-.84,0-1.54.32-2.1.95-.56.64-.83,1.44-.83,2.38Z"/>
  <path class="cls-1" d="m63.91,19.8h2.43v.94c.45-.47.84-.79,1.19-.96.35-.18.77-.27,1.26-.27.64,0,1.31.21,2.01.63l-1.11,2.23c-.46-.33-.91-.5-1.35-.5-1.33,0-1.99,1-1.99,3.01v5.46h-2.43v-10.54Z"/>
  <path class="cls-1" d="m76.76,22.07v8.27h-2.43v-8.27h-1.04v-2.27h1.04v-3.86h2.43v3.86h1.89v2.27h-1.89Z"/>
  <path class="cls-1" d="m91.36,25.64h-7.55c.06.87.35,1.56.84,2.07.5.5,1.14.76,1.92.76.61,0,1.11-.14,1.5-.43.39-.29.83-.82,1.33-1.6l2.06,1.15c-.32.54-.65,1-1.01,1.39-.35.39-.73.7-1.14.95-.4.25-.84.43-1.31.55-.47.12-.98.17-1.53.17-1.57,0-2.83-.5-3.79-1.51-.95-1.02-1.43-2.37-1.43-4.05s.46-3.01,1.38-4.05c.93-1.02,2.16-1.53,3.7-1.53s2.78.49,3.68,1.48c.89.98,1.34,2.34,1.34,4.08v.57Zm-2.5-1.99c-.34-1.3-1.16-1.95-2.46-1.95-.3,0-.57.05-.83.14s-.5.22-.71.39c-.21.17-.39.37-.55.61s-.27.51-.35.81h4.89Z"/>
  <path class="cls-1" d="m94.65,19.8h2.45v.97c.85-.84,1.81-1.27,2.88-1.27,1.23,0,2.18.39,2.87,1.16.59.66.89,1.73.89,3.21v6.46h-2.45v-5.89c0-1.04-.14-1.76-.43-2.15-.28-.4-.79-.61-1.54-.61-.81,0-1.38.27-1.72.8-.33.53-.5,1.45-.5,2.76v5.09h-2.45v-10.54Z"/>
  <path class="cls-1" d="m107.13,15.56c0-.43.16-.79.47-1.1.31-.31.68-.47,1.11-.47s.82.16,1.13.47c.31.3.47.67.47,1.11s-.16.82-.47,1.13c-.3.31-.67.47-1.11.47s-.82-.15-1.13-.47c-.31-.31-.47-.69-.47-1.14Zm2.8,4.24v16.27h-2.43v-16.27h2.43Z"/>
  <path class="cls-1" d="m112.71,24.99c0-1.52.54-2.82,1.63-3.88,1.09-1.07,2.42-1.6,3.98-1.6s2.91.54,4,1.61c1.08,1.08,1.62,2.4,1.62,3.96s-.54,2.9-1.63,3.97c-1.1,1.06-2.44,1.59-4.04,1.59s-2.9-.54-3.97-1.62c-1.07-1.07-1.6-2.41-1.6-4.02Zm2.49.04c0,1.05.28,1.89.84,2.5.58.62,1.34.93,2.28.93s1.71-.31,2.28-.92.85-1.43.85-2.46-.29-1.84-.85-2.46c-.58-.62-1.34-.93-2.28-.93s-1.68.31-2.26.93c-.58.62-.87,1.42-.87,2.4Z"/>
  <path class="cls-1" d="m129.11,19.8v6.05c0,1.75.69,2.62,2.07,2.62s2.07-.87,2.07-2.62v-6.05h2.43v6.1c0,.84-.1,1.57-.31,2.19-.2.55-.55,1.04-1.05,1.48-.82.71-1.87,1.07-3.14,1.07s-2.3-.36-3.13-1.07c-.5-.44-.86-.93-1.07-1.48-.2-.49-.3-1.22-.3-2.19v-6.1h2.43Z"/>
  <path class="cls-1" d="m139.33,19.8h2.43v.94c.45-.47.84-.79,1.19-.96.35-.18.77-.27,1.26-.27.64,0,1.31.21,2.01.63l-1.11,2.23c-.46-.33-.91-.5-1.35-.5-1.33,0-1.99,1-1.99,3.01v5.46h-2.43v-10.54Z"/>
  <path class="cls-1" d="m148.43,19.8h2.45v.97c.85-.84,1.81-1.27,2.88-1.27,1.23,0,2.18.39,2.87,1.16.59.66.89,1.73.89,3.21v6.46h-2.45v-5.89c0-1.04-.14-1.76-.43-2.15-.28-.4-.79-.61-1.54-.61-.81,0-1.38.27-1.72.8-.33.53-.5,1.45-.5,2.76v5.09h-2.45v-10.54Z"/>
  <path class="cls-1" d="m168.95,19.8h2.45v10.54h-2.45v-1.1c-1,.94-2.08,1.41-3.24,1.41-1.46,0-2.66-.53-3.61-1.58-.95-1.08-1.42-2.42-1.42-4.02s.47-2.9,1.42-3.95c.95-1.05,2.13-1.58,3.55-1.58,1.23,0,2.33.51,3.3,1.51v-1.22Zm-5.78,5.24c0,1.01.27,1.83.81,2.47.56.64,1.26.96,2.1.96.9,0,1.63-.31,2.19-.93.56-.64.83-1.46.83-2.45s-.28-1.8-.83-2.45c-.56-.63-1.28-.94-2.16-.94-.84,0-1.54.32-2.1.95-.56.64-.83,1.44-.83,2.38Z"/>
  <path class="cls-1" d="m177.48,12.07v18.27h-2.43V12.07h2.43Z"/>
  <path class="cls-1" d="m11.04,30.72c4.72,0,8.63-3.51,8.63-7.93,0-1.51-.4-2.91-1.31-4.12h-4.42v-2.51h5.72l.4.5c1.41,1.71,2.11,3.92,2.21,6.12,0,5.72-5.02,10.44-11.14,10.44S0,28.51,0,22.79c0-2.21.8-4.42,2.21-6.12l.4-.5,1.31,2.51c-.8,1.2-1.31,2.61-1.31,4.12-.2,4.32,3.71,7.93,8.43,7.93M5.72,8.93h.1l.3.7c-.2,0-.4-.1-.6-.1-.1.4-.2.8-.3,1.31.5.1,1.1.1,1.61.2l.3.7c-.7-.1-1.31-.2-2.01-.3,0,.4-.1.9,0,1.41.9.1,1.81.2,2.71.3l.3.7c-1-.2-2.01-.3-3.01-.4.1.5.2,1,.4,1.41,1.1.1,2.21.2,3.31.4l.3.7c-1.1-.2-2.31-.3-3.41-.4.3.5.6,1,1,1.41,1,.1,2.11.2,3.11.4l.3.7c-.9-.2-1.81-.3-2.71-.4,1.1.9,2.31,1.41,3.11,1.71.2.1.4.1.6.2v1.91c-.4-.1-.9-.3-1.2-.4-2.41-.8-4.52-2.51-5.82-4.72-2.01-3.92.1-8.83.2-9.04l.3-.7.7.2c1.91.5,3.71,1.41,5.32,2.61l-1.81.9c-1-.7-2.01-1.2-3.21-1.61.2,0,.2.1.1.2m8.33,2.41c-.8.3-1.71.7-2.51,1.1l.1-.7c.9-.5,1.91-.9,2.81-1.2.3-.5.5-1,.6-1.61-1.1.4-2.11.8-3.21,1.31l.1-.7c1-.5,2.01-.9,3.11-1.31,0-.5,0-1-.1-1.51-.7.4-1.71.8-2.61,1.31l.1-.7c.8-.4,1.71-.8,2.51-1.1-.1-.5-.3-.9-.4-1.31-.6.3-1.2.5-1.81.8l.2-.7c.5-.2,1-.5,1.51-.7-.2-.4-.4-.8-.6-1.2-.2.1-.4.2-.6.3l.1-.7s.1,0,.1-.1c-.1,0-.1-.2-.2-.2-1,.7-1.81,1.51-2.61,2.41l-2.01-.3c1.1-1.61,2.61-3.01,4.32-4.02l.7-.5.5.6c.1.2,3.51,4.22,2.71,8.53-.6,2.51-2.11,4.72-4.22,6.12-.2.1-.4.3-.6.4l-1-1.51c.2-.1.4-.3.5-.4.7-.4,1.71-1.31,2.51-2.41"/>
</svg>