<?xml version="1.0" encoding="UTF-8"?>
<svg id="Ebene_1" data-name="Ebene 1" xmlns="http://www.w3.org/2000/svg" xmlns:xlink="http://www.w3.org/1999/xlink" viewBox="0 0 17.53 15">
  <defs>
    <style>
      .cls-1 {
        clip-path: url(#clippath);
      }

      .cls-2 {
        fill: none;
      }

      .cls-2, .cls-3 {
        stroke-width: 0px;
      }

      .cls-3 {
        fill: #00273b;
      }
    </style>
    <clipPath id="clippath">
      <rect class="cls-2" width="17.53" height="14.99"/>
    </clipPath>
  </defs>
  <g class="cls-1">
    <path class="cls-3" d="m16.28,12.5H1.25c-.75,0-1.25.5-1.25,1.25s.5,1.25,1.25,1.25h15.03c.75,0,1.25-.5,1.25-1.25s-.5-1.25-1.25-1.25M1.25,2.5h15.03c.75,0,1.25-.5,1.25-1.25S17.03,0,16.28,0H1.25C.5,0,0,.5,0,1.25s.5,1.25,1.25,1.25m15.03,3.75H1.25c-.75,0-1.25.5-1.25,1.25s.5,1.25,1.25,1.25h15.03c.75,0,1.25-.5,1.25-1.25s-.5-1.25-1.25-1.25"/>
  </g>
</svg>