<?xml version="1.0" encoding="UTF-8"?>
<svg id="Ebene_1" data-name="Ebene 1" xmlns="http://www.w3.org/2000/svg" viewBox="0 0 830.69 426.49">
  <defs>
    <style>
      .cls-1 {
        fill: #f2f4d9;
        stroke-width: 0px;
      }
    </style>
  </defs>
  <path class="cls-1" d="m822.69,361.43c-1.5-11.54-3.23-20.87-16.67-26.96-11.96-5.42-23.27-8.67-36.02-9.73-6.99.7-14.09.96-20.97,2.13-11.22,1.88-13.87,4.75-13.68,16.36.3,20.4.96,40.8,2.17,61.13.85,14.59,13.53,24.05,28.03,21.8,7.32-1.14,14.59-2.67,21.97-3.61,12-1.5,22.75-5.38,32.84-12.51,7.42-5.24,8.64-10.85,6.92-19.01-2.08-9.75-3.34-19.67-4.6-29.59m-112.63,23.46c-3.41-12.8-3.58-25.67-.54-38.53,1.11-4.74-.67-8.07-4.56-10.34-2.89-1.64-5.91-3.62-9.05-4.17-15.28-2.71-30.65-4.96-42.44-6.8-15.93,1.96-28.14,3.15-40.23,5.07-5.82.9-11.44,3.1-17.15,4.81-7.42,2.2-9.62,4.83-7.25,12.13,5.56,17.27,5.17,35.22,7.16,52.88.95,8.43,4.43,12.66,12.96,14.39,3.56.72,7.36.49,11.03.38,7.79-.21,15.26-.32,22.69,3.64,6.08,3.25,12.94,5.46,20.4,3.88,7.62-1.58,15.42-2.46,23.12-3.68,21.82-3.4,26.96-10.43,24.03-32.53-.04-.39-.09-.74-.17-1.12m-145.15-57.06c-2.17-10.94-7.64-14.33-18.3-11.6-3.95,1.05-7.95,1.92-11.98,2.52-4.6.66-8.9-.16-12.03-4.16-5.43-7.04-12.83-8.55-21.04-6.86-13.83,2.86-27.59,5.91-41.38,8.99-4.99,1.14-11.61,1.01-14.48,4.17-2.78,3.06-2.24,9.67-2.11,14.69.41,16.26.59,32.59,2.26,48.73,1.32,12.39,5.56,14.8,17.98,14.46,17.41-.55,34.78-.97,60.18-1.67,9.16-1.67,26.42-4.31,43.38-8.2,8.6-1.97,9.05-4.26,7.23-13.1-3.26-15.98-6.47-32-9.71-47.96m20.39-217.75c-.11.03-.24.1-.37.11,0,4.46-.2,8.93.04,13.35.8,14.01,7.75,19.84,21.82,18.99,8.16-.47,16.35-.59,24.49-.56,7.03.03,14.09.84,21.08.59,8.18-.27,16.33-1.24,24.47-2.06,4.43-.45,8.97-.69,13.26-1.8,9.73-2.5,12.33-8.4,8.1-17.67-2.13-4.73-5.21-9.14-6.64-14.06-5.8-19.73-8.14-40.05-9.27-60.5-.59-10.83-1.82-12.66-12.68-14.05-11.03-1.4-22.1-3.77-33.09-3.5-16.26.45-32.5,2.79-48.69,4.52-5.12.54-7.86,4-8.36,9.03-.28,3.31-.63,6.69-.26,9.97,1.89,19.23,4.04,38.43,6.1,57.65m-131.67,14.93c5.23,2.26,11.18,3.05,16.91,4.07,4.32.78,9.14-.07,13.09,1.46,9.03,3.5,18.02,3.8,27.38,2.17,5.06-.87,10.33-.79,13-.95,6.62,0,10.68.1,14.76-.06,1.87-.05,3.69-.56,5.47-1,11.18-2.93,13.89-6.79,10.66-17.63-6.82-22.89-9.88-46.35-11.68-70.08-.76-10.07-2.19-11.43-11.9-12.46-4.06-.41-8.16-.73-12.24-.78-8.88-.09-9.27.11-10.94-8.22-1.3-6.57-5.21-9.63-11.27-10.44-3.63-.49-7.38-.5-11.05-.19-9.25.79-18.5,1.93-27.72,2.86-20.25,2.03-22.34,5.33-19.78,25.55,3.15,24.26,5.49,48.65,7.75,73.01.56,5.79,2.61,10.55,7.56,12.7m292.83,165.43c19.28-.5,31.13-15.33,27.68-34.42-.52-2.89-.74-5.92-.59-8.84.7-11.88,1.59-23.72,2.5-35.58.63-7.82-1.74-14.88-7.14-15.9-7.16-1.44-13.39-3.74-18.54-9-.91-.93-2.73-1.45-4.08-1.4-7.17.39-13-2-17.87-7.26-.91-1.02-2.61-1.43-4.04-1.74-19.69-3.95-39.18-1.55-58.68,1.7-3.99.66-6.64,3.17-7.08,7.52-.69,6.63-2.11,13.27-1.93,19.9.33,13.73,1.41,27.44,2.41,41.16.61,8.47,1.39,16.99,2.69,25.39,1.46,9.49,7.79,15.19,17.37,15.83,5.15.36,10.38-.5,15.57-.65,4.04-.11,8.68-1.18,12.07.34,8.62,3.89,17.37,3.47,25.84,2.97,4.91,0,9.38.12,13.83-.03m-25.16-155.89c3.97,11.17,9.49,15.43,21.38,15.77,5.56.18,11.11.03,16.72.03v-.67c4.45,0,8.97.36,13.35-.05,10.94-1,22.6.13,30.74-9.96,1.17-1.45,3.8-1.97,5.86-2.4,2.91-.63,5.97-.46,8.84-1.1,10.7-2.36,14.33-8.13,11.64-18.68-1.28-5.02-2.93-10-4.89-14.82-8.18-20.27-18.15-39.81-22.34-61.58-.63-3.11-4.21-7.67-6.86-8.01-9.31-1.15-17.6-4.65-25.92-8.51-1.26-.59-2.93-.23-4.43-.38-16.91-1.61-33.24,2.19-49.65,5.3-7.68,1.47-9.9,4.46-10.42,12.16-.15,2.97-.33,5.99-.11,8.93,2.13,28.61,6.47,56.78,16.09,83.97m-108.37,143.33c-10.27,1.84-20.67,2.74-30.96,4.07-.04-.67-.04-1.33-.09-1.96-10.38,0-20.78-.26-31.18.06-7.77.23-15.54.93-23.27,1.81-16.41,1.89-22.82-2.8-25.42-18.74-3.93-23.86-8.01-47.72-12.07-71.55-1.13-6.86-.11-9.27,6.23-10.68,15.57-3.41,31.17-6.83,46.91-9.44,5.64-.95,11.72.32,17.59.7,7.38.5,14.78,1.6,22.12,1.57,5.67,0,10.64,1.12,13.96,5.5,3.52,4.67,7.79,5.88,13.29,6.63,10.79,1.35,14.89,7.85,11.83,17.83-2.13,6.93-2.04,12.84.26,20.23,2.93,9.66,1.6,20.65,2.1,31.01.09,2.58-.04,5.22.17,7.78.8,10.54-.85,13.29-11.48,15.19"/>
  <path class="cls-1" d="m82.2,221.46c1.5,11.54,3.23,20.87,16.67,26.96,11.96,5.42,23.27,8.67,36.02,9.73,6.99-.7,14.09-.96,20.97-2.13,11.22-1.88,13.87-4.75,13.68-16.36-.3-20.4-.96-40.8-2.17-61.13-.85-14.59-13.53-24.05-28.03-21.8-7.32,1.14-14.59,2.67-21.97,3.61-12,1.5-22.75,5.38-32.84,12.51-7.43,5.24-8.64,10.85-6.93,19.01,2.08,9.75,3.34,19.67,4.6,29.59m112.63-23.46c3.41,12.8,3.58,25.67.54,38.53-1.11,4.74.67,8.07,4.56,10.34,2.89,1.64,5.9,3.61,9.05,4.17,15.28,2.71,30.65,4.96,42.44,6.8,15.93-1.96,28.14-3.15,40.23-5.07,5.82-.9,11.44-3.1,17.15-4.81,7.42-2.2,9.62-4.83,7.25-12.13-5.56-17.27-5.17-35.22-7.16-52.88-.96-8.43-4.43-12.66-12.96-14.39-3.56-.72-7.36-.49-11.03-.39-7.79.21-15.26.32-22.69-3.64-6.08-3.25-12.94-5.46-20.4-3.88-7.62,1.58-15.41,2.46-23.12,3.68-21.82,3.4-26.96,10.43-24.03,32.53.04.39.09.74.17,1.12m145.15,57.06c2.17,10.94,7.64,14.33,18.3,11.6,3.95-1.05,7.95-1.92,11.98-2.52,4.6-.66,8.9.16,12.03,4.16,5.43,7.04,12.83,8.55,21.04,6.86,13.83-2.86,27.59-5.92,41.38-8.99,4.99-1.14,11.61-1.02,14.48-4.17,2.78-3.05,2.24-9.67,2.11-14.69-.41-16.26-.59-32.59-2.26-48.73-1.32-12.39-5.56-14.8-17.98-14.46-17.41.55-34.78.97-60.18,1.67-9.16,1.67-26.42,4.31-43.38,8.2-8.6,1.97-9.05,4.26-7.23,13.1,3.26,15.98,6.47,32,9.7,47.96m-181.55,37.39c-19.28.5-31.13,15.33-27.68,34.42.52,2.89.74,5.92.59,8.84-.7,11.88-1.59,23.72-2.5,35.58-.63,7.82,1.74,14.88,7.14,15.9,7.16,1.44,13.39,3.75,18.54,9,.91.93,2.74,1.45,4.08,1.4,7.16-.39,13,2,17.87,7.25.91,1.02,2.61,1.43,4.04,1.74,19.69,3.95,39.19,1.55,58.68-1.7,3.99-.66,6.64-3.17,7.08-7.52.69-6.63,2.11-13.27,1.93-19.9-.33-13.73-1.41-27.44-2.41-41.16-.61-8.47-1.39-16.99-2.69-25.39-1.45-9.49-7.79-15.18-17.37-15.83-5.14-.36-10.38.5-15.57.65-4.04.11-8.68,1.18-12.07-.34-8.62-3.89-17.37-3.47-25.84-2.97-4.91,0-9.38-.12-13.83.03m133.53,12.56c10.27-1.84,20.67-2.74,30.96-4.07.04.67.04,1.33.09,1.96,10.38,0,20.78.25,31.17-.06,7.77-.23,15.55-.93,23.27-1.81,16.41-1.89,22.82,2.8,25.42,18.74,3.93,23.86,8.01,47.72,12.07,71.55,1.13,6.86.11,9.27-6.23,10.68-15.57,3.41-31.17,6.83-46.91,9.44-5.64.94-11.72-.32-17.59-.7-7.38-.5-14.78-1.6-22.12-1.57-5.67,0-10.64-1.12-13.96-5.5-3.52-4.67-7.79-5.88-13.29-6.63-10.79-1.35-14.89-7.85-11.83-17.83,2.13-6.93,2.04-12.84-.26-20.23-2.93-9.66-1.61-20.65-2.11-31.01-.09-2.58.04-5.22-.17-7.78-.8-10.53.85-13.29,11.48-15.19"/>
  <path class="cls-1" d="m245.38,40.34c.11-.03.24-.1.37-.11,0-4.46.2-8.93-.04-13.35-.8-14.01-7.75-19.84-21.82-18.99-8.16.47-16.35.59-24.49.56-7.03-.03-14.09-.84-21.08-.59-8.18.27-16.32,1.24-24.47,2.06-4.43.45-8.97.69-13.26,1.8-9.73,2.5-12.33,8.4-8.1,17.67,2.13,4.73,5.21,9.14,6.64,14.06,5.8,19.73,8.14,40.05,9.27,60.5.59,10.83,1.82,12.66,12.68,14.05,11.03,1.4,22.1,3.77,33.09,3.5,16.26-.45,32.5-2.79,48.69-4.52,5.12-.54,7.86-4,8.36-9.03.28-3.31.63-6.69.26-9.97-1.89-19.23-4.04-38.43-6.1-57.65m131.67-14.93c-5.23-2.26-11.18-3.06-16.91-4.07-4.32-.78-9.14.07-13.09-1.46-9.03-3.5-18.02-3.8-27.38-2.17-5.06.87-10.33.79-13,.96-6.62,0-10.68-.1-14.76.06-1.87.05-3.69.56-5.47,1-11.18,2.93-13.89,6.79-10.66,17.63,6.82,22.89,9.88,46.35,11.68,70.08.76,10.07,2.19,11.43,11.9,12.46,4.06.41,8.16.73,12.24.78,8.88.09,9.27-.11,10.94,8.22,1.3,6.57,5.21,9.63,11.27,10.44,3.63.49,7.38.51,11.05.19,9.25-.79,18.5-1.93,27.72-2.86,20.25-2.03,22.34-5.33,19.78-25.54-3.15-24.26-5.49-48.65-7.75-73.01-.56-5.79-2.61-10.55-7.55-12.7M109.38,15.86C105.4,4.69,99.89.43,87.99.09c-5.56-.18-11.11-.03-16.72-.03v.67c-4.45,0-8.97-.36-13.35.05-10.94,1-22.6-.13-30.74,9.96-1.17,1.44-3.8,1.97-5.86,2.4-2.91.63-5.97.46-8.84,1.1C1.79,16.6-1.84,22.38.85,32.92c1.28,5.03,2.93,10,4.89,14.82,8.18,20.27,18.15,39.81,22.34,61.58.63,3.11,4.21,7.67,6.86,8.01,9.31,1.15,17.61,4.65,25.92,8.5,1.26.59,2.93.23,4.43.38,16.91,1.61,33.24-2.19,49.65-5.3,7.69-1.47,9.9-4.46,10.42-12.16.15-2.97.33-5.99.11-8.93-2.13-28.61-6.47-56.78-16.09-83.97"/>
</svg>