<?xml version="1.0" encoding="UTF-8"?>
<svg id="Ebene_1" data-name="Ebene 1" xmlns="http://www.w3.org/2000/svg" xmlns:xlink="http://www.w3.org/1999/xlink" viewBox="0 0 42 42">
  <defs>
    <style>
      .cls-1 {
        clip-path: url(#clippath);
      }

      .cls-2 {
        fill: none;
      }

      .cls-2, .cls-3 {
        stroke-width: 0px;
      }

      .cls-3 {
        fill: #4b8764;
      }
    </style>
    <clipPath id="clippath">
      <rect class="cls-2" width="42" height="42"/>
    </clipPath>
  </defs>
  <g class="cls-1">
    <path class="cls-3" d="m21.02,42c-2.76,0-5.5-.53-8.04-1.59-2.55-1.06-4.86-2.6-6.81-4.56-1.96-1.95-3.5-4.26-4.56-6.81C.53,26.49,0,23.76,0,21s.53-5.49,1.59-8.04c1.05-2.54,2.6-4.86,4.56-6.8,1.95-1.96,4.26-3.51,6.81-4.56C15.51.54,18.25,0,21,0s5.49.53,8.04,1.59c2.55,1.06,4.87,2.61,6.81,4.56,1.96,1.95,3.51,4.26,4.56,6.8,1.06,2.55,1.6,5.28,1.59,8.04,0,2.76-.53,5.49-1.59,8.04-1.06,2.54-2.6,4.86-4.56,6.8-1.95,1.96-4.26,3.51-6.81,4.56-2.55,1.06-5.28,1.6-8.04,1.59m-.82-26.43c-.4,0-.79.11-1.14.3-.35.19-.65.46-.87.8-.57.79-.87,1.76-.83,2.74l.02.39c0,.32.06.63.13.94.07.34.18.67.34.99-1.09,4.6-1.71,7.23-1.9,8.05-.09.4-.15.81-.19,1.23-.04.44-.07.85-.08,1.23,0,.38,0,.77.03,1.14.03.38.05.71.08.97.03.25.05.49.08.7.03.22.04.34.04.36,0,.04.03.08.05.1.02.03.06.05.1.05h.05s.06,0,.09-.02c.03-.02.05-.03.07-.06l.15-.2c.09-.11.2-.24.34-.42.11-.15.24-.35.42-.6.18-.26.35-.53.49-.77.14-.24.32-.55.49-.87.17-.33.33-.66.45-.97.14-.32.24-.66.34-.99l1.02-4.06c.34.57.83,1.02,1.43,1.31.66.36,1.41.55,2.17.54,1.12.02,2.23-.23,3.22-.73,1-.5,1.86-1.23,2.52-2.13,1.54-2.1,2.33-4.66,2.23-7.26,0-1.12-.24-2.23-.69-3.25-.45-1.03-1.12-1.94-1.94-2.69-.89-.84-1.95-1.5-3.1-1.93-1.15-.43-2.38-.63-3.6-.59-1.57-.02-3.13.27-4.59.85-1.26.49-2.39,1.24-3.34,2.21-.82.86-1.48,1.86-1.95,2.96-.45,1.02-.67,2.11-.68,3.21-.02,1.21.23,2.41.76,3.5.47.97,1.28,1.72,2.28,2.12.08.03.17.05.26.05.07,0,.13-.02.2-.04.07-.03.13-.08.18-.15.04-.07.07-.14.08-.22.06-.19.11-.4.15-.6.04-.2.09-.4.15-.59.04-.14.04-.29,0-.44-.03-.14-.11-.28-.22-.39-.66-.82-1.01-1.85-.97-2.91-.02-.92.16-1.84.5-2.7.34-.86.86-1.64,1.51-2.29.68-.69,1.5-1.23,2.4-1.6.91-.36,1.87-.53,2.85-.49.82-.05,1.65.07,2.42.34.77.27,1.49.69,2.1,1.24.54.53.96,1.16,1.24,1.86.28.7.41,1.45.39,2.2.06,1.94-.4,3.86-1.32,5.57-.29.66-.76,1.22-1.35,1.62-.6.4-1.28.64-2,.67-.36.02-.71-.06-1.04-.2-.33-.15-.61-.37-.85-.65-.23-.27-.39-.6-.47-.95-.08-.35-.07-.71.02-1.06.1-.46.27-1.05.51-1.81.24-.76.43-1.4.58-1.98.13-.47.21-.96.22-1.45.02-.57-.17-1.13-.53-1.58-.18-.2-.41-.37-.66-.47-.25-.1-.53-.15-.81-.13"/>
  </g>
</svg>